<svg width="89" height="60" viewBox="0 0 89 60" fill="none" xmlns="http://www.w3.org/2000/svg">
<path d="M-14.5372 0.587891L-21.2558 9.59852L-24.3448 9.15988L-24.2429 9.1537C-24.1962 9.14997 -24.1511 9.13513 -24.1113 9.11041C-24.0716 9.08569 -24.0383 9.05181 -24.0143 9.0116L-23.5509 8.23318C-23.529 8.19795 -23.5213 8.1557 -23.5293 8.11499C-23.5373 8.07427 -23.5605 8.03813 -23.5942 8.01386L-25.9665 6.26239C-25.9853 6.24871 -26.0066 6.23908 -26.0292 6.23415C-26.0518 6.22921 -26.0751 6.22907 -26.0976 6.23374C-26.1201 6.23841 -26.1413 6.24779 -26.1597 6.26125C-26.1781 6.27471 -26.1933 6.29194 -26.2044 6.31182L-26.5596 6.93888C-26.6132 7.03361 -26.6811 7.11496 -26.7635 7.18291C-27.3772 7.68539 -27.8323 8.3104 -28.1288 9.05794H-31.1406C-31.0541 8.37218 -30.7669 7.78424 -30.2788 7.29412C-29.972 7.55771 -29.6898 7.5052 -29.4324 7.13658C-28.0897 5.21316 -26.7326 3.25267 -25.3611 1.25512C-25.353 1.24309 -25.3481 1.22915 -25.3471 1.21468C-25.346 1.2002 -25.3487 1.1857 -25.3549 1.1726C-25.3612 1.1595 -25.3707 1.14825 -25.3826 1.13997C-25.3945 1.13168 -25.4084 1.12666 -25.4229 1.12538L-25.8121 1.10375L-25.7318 0.893701C-25.717 0.854197 -25.7177 0.810619 -25.7338 0.772059C-25.7499 0.733499 -25.7802 0.702934 -25.8183 0.686739L-26.0438 0.587891H-14.5372ZM-23.4521 3.01894C-23.4274 3.34019 -23.2616 3.56981 -22.9548 3.70778C-22.8621 3.75103 -22.7838 3.81178 -22.72 3.89004C-22.1537 4.58815 -21.4854 4.81777 -20.7152 4.57888L-19.943 3.05909L-19.2449 2.15093C-19.2312 2.13306 -19.2211 2.11269 -19.2152 2.091C-19.2093 2.06932 -19.2078 2.04675 -19.2106 2.02462C-19.2135 2.00249 -19.2208 1.98123 -19.2319 1.96208C-19.2431 1.94293 -19.258 1.92627 -19.2758 1.91307C-20.0604 1.31072 -21.4566 0.306791 -22.4018 1.2026C-23.0279 1.79569 -23.378 2.40114 -23.4521 3.01894Z" fill="#6B6B6B" fill-opacity="0.4"/>
<path d="M-26.0464 0.591078L-25.8209 0.689926C-25.7828 0.706121 -25.7526 0.736686 -25.7365 0.775246C-25.7204 0.813807 -25.7196 0.857384 -25.7345 0.896888L-25.8148 1.10694L-30.2815 7.29731C-30.7695 7.78743 -31.0568 8.37537 -31.1433 9.06113C-32.8402 9.24029 -34.5113 9.53374 -36.1568 9.94149C-36.2012 9.95302 -36.2475 9.95457 -36.2924 9.94602C-36.3373 9.93747 -36.3796 9.91904 -36.4162 9.89207L-40.3331 7.0471C-40.3658 7.02222 -40.3893 6.98718 -40.4 6.94747C-40.4106 6.90777 -40.4077 6.86567 -40.3918 6.82778C-40.2847 6.56212 -40.1344 6.30882 -39.9408 6.06788C-37.1524 2.57113 -33.5239 0.741409 -29.0551 0.578721C-28.6289 0.564306 -27.626 0.568425 -26.0464 0.591078Z" fill="#9E9E9E"/>
<path d="M-14.5431 0.587891H-13.3848C-13.2303 0.653789 -13.1304 0.751608 -13.0851 0.881346C-13.0695 0.927273 -13.0676 0.976664 -13.0797 1.02336C-13.0918 1.07005 -13.1173 1.11198 -13.1531 1.14391C-13.8594 1.77201 -14.4731 2.48351 -14.9941 3.27841C-16.4521 5.30068 -17.904 7.3281 -19.3496 9.36067C-19.4608 9.51512 -19.433 9.70149 -19.2662 9.91978L-21.2617 9.59852L-14.5431 0.587891Z" fill="#9E9E9E"/>
<path d="M-13.3867 0.593456C-4.99698 0.556388 0.248146 0.557417 2.34867 0.596545C8.17145 0.710838 13.5896 4.99838 15.097 10.6698C15.931 13.8051 15.5882 18.2008 15.5603 21.7408L14.7634 21.2157C14.6832 21.1636 14.6225 21.0877 14.5904 20.9994C14.2753 20.116 14.1641 19.0719 13.8521 18.2873C12.9748 16.0941 11.8906 14.7658 10.7353 12.9186C10.6591 12.795 10.5469 12.7044 10.3986 12.6468C10.3058 12.6105 10.2254 12.5483 10.1669 12.4676C8.61317 10.3238 7.01307 9.5176 5.17202 8.09356C4.80958 7.81144 4.32151 7.52828 3.70783 7.24409C0.82579 5.90964 -1.84311 4.48869 -5.36149 4.07168C-7.78121 3.78749 -10.2143 3.63716 -12.6608 3.62068C-12.7558 3.61876 -12.8457 3.57991 -12.911 3.51257C-13.0068 3.41681 -14.5389 3.50021 -14.9961 3.28398C-14.4751 2.48908 -13.8614 1.77758 -13.155 1.14948C-13.1193 1.11755 -13.0937 1.07562 -13.0817 1.02892C-13.0696 0.98223 -13.0715 0.932839 -13.0871 0.886912C-13.1324 0.757174 -13.2323 0.659355 -13.3867 0.593456Z" fill="#9E9E9E"/>
<path d="M-19.944 3.05456L-21.2012 2.07535C-21.243 2.04304 -21.292 2.02123 -21.3439 2.01173C-21.3959 2.00223 -21.4494 2.00533 -21.4999 2.02076C-21.5504 2.03619 -21.5965 2.0635 -21.6343 2.10041C-21.6721 2.13732 -21.7005 2.18275 -21.7171 2.23289C-21.8757 2.71889 -22.1856 3.12149 -22.6469 3.44069L-23.4531 3.01441C-23.379 2.3966 -23.0289 1.79116 -22.4029 1.19807C-21.4576 0.302259 -20.0614 1.30619 -19.2768 1.90854C-19.259 1.92174 -19.2441 1.9384 -19.233 1.95755C-19.2218 1.9767 -19.2146 1.99796 -19.2117 2.02009C-19.2088 2.04222 -19.2104 2.06479 -19.2162 2.08647C-19.2221 2.10816 -19.2322 2.12852 -19.2459 2.14639L-19.944 3.05456Z" fill="#9E9E9E"/>
<path d="M-25.8145 1.09766L-25.4253 1.11928C-25.4109 1.12056 -25.397 1.12559 -25.3851 1.13387C-25.3732 1.14215 -25.3636 1.1534 -25.3574 1.1665C-25.3511 1.1796 -25.3484 1.19411 -25.3495 1.20858C-25.3506 1.22305 -25.3554 1.23699 -25.3636 1.24902C-26.7351 3.24657 -28.0922 5.20706 -29.4349 7.13048C-29.6923 7.4991 -29.9744 7.55162 -30.2812 7.28802L-25.8145 1.09766Z" fill="#9E9E9E"/>
<path d="M-19.9456 3.05408L-20.7178 4.57387C-21.488 4.42765 -22.1315 4.04977 -22.6484 3.4402C-22.1871 3.12101 -21.8772 2.71841 -21.7186 2.2324C-21.702 2.18226 -21.6736 2.13683 -21.6358 2.09992C-21.5981 2.06301 -21.552 2.0357 -21.5014 2.02027C-21.4509 2.00484 -21.3974 2.00175 -21.3455 2.01125C-21.2935 2.02074 -21.2446 2.04256 -21.2028 2.07486L-19.9456 3.05408Z" fill="#9E9E9E"/>
<path d="M31.4295 13.6794C33.567 13.6763 39.1952 14.0007 39.9366 16.8086C40.4401 18.7114 38.2561 20.0829 36.5418 19.0666C36.5048 19.0446 36.4742 19.0132 36.453 18.9757C36.4319 18.9381 36.4209 18.8957 36.4212 18.8526C36.4215 18.8095 36.4331 18.7673 36.4548 18.73C36.4765 18.6928 36.5075 18.6619 36.5448 18.6404L37.694 17.9886C37.7398 17.9631 37.7784 17.9263 37.8062 17.8817C37.834 17.8372 37.85 17.7862 37.8527 17.7335C37.8555 17.6809 37.845 17.6282 37.8221 17.5805C37.7992 17.5327 37.7647 17.4914 37.7218 17.4604C36.1433 16.3329 33.2087 16.3452 31.2997 16.2927C31.2758 16.2919 31.252 16.296 31.2297 16.3048C31.2074 16.3136 31.1872 16.3269 31.1701 16.344C31.1531 16.361 31.1396 16.3815 31.1305 16.404C31.1215 16.4265 31.117 16.4506 31.1175 16.475L31.2534 22.4985C31.254 22.5433 31.27 22.5864 31.2987 22.6207C31.3274 22.655 31.367 22.6784 31.4109 22.6869C34.954 23.3727 40.6625 22.9372 42.8989 19.8389C45.2497 16.5831 42.068 12.6693 39.2354 10.5842C33.4497 6.32757 26.3017 3.92123 19.1198 5.21244C19.0777 5.22037 19.0395 5.2424 19.0116 5.27491C18.9837 5.30742 18.9678 5.34847 18.9663 5.39128C18.9649 5.4341 18.9781 5.47613 19.0037 5.51044C19.0294 5.54475 19.0659 5.56929 19.1074 5.58003L20.1422 5.83642C20.1762 5.8454 20.2067 5.86436 20.2299 5.89084C20.253 5.91732 20.2677 5.95012 20.272 5.98501C20.2763 6.0199 20.2701 6.05529 20.2541 6.08661C20.2381 6.11794 20.2132 6.14376 20.1824 6.16076C19.4781 6.53145 17.2169 6.62103 17.5011 5.43485C18.0386 3.21385 21.6991 2.94511 23.5494 2.93584C30.7756 2.90495 37.1132 5.2979 42.5622 10.1147C44.9006 12.1812 46.9146 15.3042 46.442 18.4766C45.4504 25.1118 36.4769 26.1219 31.4511 24.8276C31.4274 24.8215 31.4027 24.8209 31.3788 24.8258C31.3548 24.8307 31.3323 24.8409 31.313 24.8558C31.2936 24.8707 31.2779 24.8898 31.267 24.9117C31.2562 24.9336 31.2504 24.9577 31.2503 24.9821C31.2318 26.0488 30.65 26.47 29.505 26.2455C29.4053 26.2255 29.3164 26.1707 29.2548 26.091C28.7626 25.4712 28.5031 24.7576 28.4764 23.9504C28.4754 23.9042 28.4613 23.8593 28.4355 23.8209C28.4098 23.7826 28.3736 23.7525 28.3312 23.7341C25.9547 22.7127 23.9644 21.2022 22.3601 19.2025C19.6727 15.851 26.7465 14.3281 28.5165 14.0161C28.5575 14.0089 28.5946 13.9878 28.6217 13.9562C28.6487 13.9247 28.664 13.8847 28.6648 13.8431C28.6936 12.2698 28.9129 10.7232 29.3227 9.20344C29.3419 9.13158 29.3791 9.06582 29.4309 9.01243C29.4827 8.95904 29.5472 8.91979 29.6185 8.89842C29.6897 8.87706 29.7652 8.87428 29.8378 8.89036C29.9104 8.90644 29.9777 8.94085 30.0332 8.99029C31.1051 9.95098 31.1947 11.9063 31.2657 13.525C31.2673 13.567 31.2854 13.6068 31.316 13.6356C31.3466 13.6645 31.3874 13.6802 31.4295 13.6794ZM22.7061 18.0905C23.5123 19.7431 26.5396 21.1579 28.254 21.7695C28.2707 21.7753 28.2885 21.7771 28.3061 21.7748C28.3236 21.7725 28.3404 21.7661 28.355 21.7563C28.3697 21.7464 28.3819 21.7332 28.3906 21.7178C28.3993 21.7024 28.4044 21.6852 28.4053 21.6676L28.6277 16.651C28.6286 16.6297 28.6252 16.6084 28.6179 16.5884C28.6105 16.5683 28.5993 16.55 28.5849 16.5345C28.5705 16.519 28.5533 16.5065 28.5341 16.4979C28.5149 16.4892 28.4942 16.4846 28.4733 16.4842C27.1728 16.4441 23.5679 16.685 22.7277 17.8218C22.6997 17.8599 22.6829 17.9052 22.679 17.9526C22.6752 18.0001 22.6846 18.0478 22.7061 18.0905Z" fill="#9E9E9E"/>
<path d="M-23.4531 3.01562L-22.6469 3.44191C-22.13 4.05147 -21.4865 4.42936 -20.7163 4.57557C-21.4865 4.81446 -22.1547 4.58484 -22.721 3.88672C-22.7849 3.80847 -22.8631 3.74772 -22.9558 3.70447C-23.2626 3.5665 -23.4284 3.33688 -23.4531 3.01562Z" fill="#9E9E9E"/>
<path d="M-14.9946 3.27148C-14.5375 3.48771 -13.0053 3.40431 -12.9096 3.50007C-12.8442 3.56741 -12.7543 3.60626 -12.6593 3.60819C-10.2128 3.62466 -7.77975 3.77499 -5.36002 4.05918C-1.84165 4.4762 0.827255 5.89714 3.7093 7.23159C4.32298 7.51578 4.81104 7.79893 5.17348 8.08106C7.01453 9.50509 8.61464 10.3113 10.1684 12.4551C10.2268 12.5358 10.3073 12.598 10.4001 12.6343C10.5484 12.6919 10.6606 12.7825 10.7368 12.9061C11.8921 14.7533 12.9763 16.0816 13.8536 18.2748C14.1656 19.0594 14.2768 20.1035 14.5919 20.9869C14.624 21.0752 14.6847 21.1511 14.7649 21.2032L15.5618 21.7283L15.5495 36.7099C14.1388 38.4769 12.8991 40.3642 11.8303 42.3721C11.509 42.9775 10.7152 43.1969 10.5854 43.9228C10.5672 44.0219 10.5234 44.1136 10.4588 44.1884L7.32961 47.8551C7.32961 47.8551 7.32327 47.856 7.31599 47.8549C7.30871 47.8537 7.29937 47.8516 7.28946 47.8489L7.21223 47.8242C7.20588 47.8223 7.19918 47.8219 7.19264 47.823C7.1861 47.8241 7.1799 47.8267 7.17453 47.8306C7.16916 47.8344 7.16475 47.8395 7.16164 47.8454C7.15854 47.8512 7.15683 47.8577 7.15663 47.8643V47.9879C7.15665 48.0003 7.15385 48.0125 7.14847 48.0232C7.14309 48.034 7.13529 48.0431 7.12574 48.0497C5.09729 49.5118 2.6889 50.908 -0.0994492 52.2384C-0.354805 52.3599 -0.563828 52.434 -0.726517 52.4608C-0.827423 52.4773 -0.91803 52.5174 -0.998344 52.5813C-2.18143 53.5265 -3.24714 53.2238 -4.46421 53.4585C-7.23608 53.996 -10.0347 54.2648 -12.8601 54.2648C-12.8716 54.2649 -12.8827 54.2686 -12.8916 54.2753C-12.9005 54.282 -12.9068 54.2913 -12.9096 54.3018L-12.925 54.3791C-12.9258 54.3851 -12.9287 54.3906 -12.9332 54.3946C-12.9378 54.3985 -12.9437 54.4007 -12.9497 54.4007C-15.3406 54.4686 -17.6656 54.1124 -19.9247 53.3319C-20.0215 53.2989 -20.1193 53.2897 -20.2181 53.3041C-20.7 53.3762 -21.1304 53.2855 -21.5093 53.0322C-22.0901 52.643 -22.7573 52.6986 -23.3627 52.4855C-25.3706 51.7771 -27.2096 50.7732 -28.8797 49.4737C-29.5284 48.9702 -30.418 48.5501 -31.1254 47.8829C-32.5361 46.5608 -33.7686 45.2613 -34.823 43.9846C-34.8286 43.9781 -34.8321 43.9695 -34.8332 43.9597C-34.8343 43.9499 -34.8329 43.9393 -34.8291 43.929L-34.8013 43.8579L-34.8 43.8538L-34.8013 43.8486C-35.7713 42.5718 -36.5374 41.1859 -37.0996 39.6908C-37.3405 39.0514 -38.19 36.5802 -38.8047 36.2466L-32.0737 26.9672C-30.6188 28.0824 -32.4815 30.5845 -30.9802 32.4626C-32.3394 33.4603 -33.019 34.7268 -32.395 36.4011C-32.5783 36.3969 -32.7132 36.4731 -32.7997 36.6296C-32.8223 36.6723 -32.8339 36.7201 -32.8333 36.7687C-32.8328 36.8172 -32.8202 36.865 -32.7966 36.9076C-29.964 41.9365 -26.3653 44.1761 -21.4352 46.8419C-21.3854 46.8697 -21.3429 46.9089 -21.3112 46.9562C-21.2795 47.0034 -21.2596 47.0574 -21.253 47.1137C-21.0573 48.6994 -20.4045 50.0606 -19.2945 51.1974C-19.2161 51.2778 -19.1146 51.3318 -19.0042 51.3518C-17.2167 51.6916 -16.1798 50.976 -15.8935 49.205C-15.8876 49.1685 -15.8744 49.1336 -15.8545 49.1025C-15.8347 49.0713 -15.8088 49.0446 -15.7783 49.0241C-15.7479 49.0035 -15.7136 48.9894 -15.6776 48.9828C-15.6416 48.9762 -15.6047 48.9772 -15.5692 48.9857C-8.05054 50.7433 1.18558 50.0977 7.09484 44.4881C8.17291 43.4656 8.93899 41.9365 9.85024 40.6639C9.90829 40.5817 9.93661 40.4836 9.93055 40.3859C9.91614 40.1676 9.83685 39.9719 9.6927 39.799C12.2597 34.0503 10.1684 28.7249 6.19286 24.2335C-0.334206 16.8538 -9.74023 12.0504 -19.2667 9.91284C-19.4335 9.69455 -19.4613 9.50818 -19.3501 9.35373C-17.9045 7.32117 -16.4526 5.29375 -14.9946 3.27148Z" fill="#9E9E9E"/>
<path d="M45.6826 10.9336C42.9488 7.01364 50.6868 3.05662 53.0406 5.54945C53.1088 5.62155 53.2 5.66932 53.3001 5.68537C57.0316 6.29699 54.1248 9.96364 52.5865 11.1251C51.1656 12.198 49.5284 12.5502 47.675 12.1815C47.6349 12.174 47.5938 12.1762 47.555 12.188C47.5162 12.1999 47.4811 12.221 47.4526 12.2495L46.7853 12.9167C46.7462 12.956 46.6939 12.9795 46.6382 12.9829C46.5826 12.9863 46.5273 12.9694 46.4826 12.9353C45.9081 12.4904 45.6651 11.92 45.7536 11.224C45.7656 11.1223 45.7404 11.0192 45.6826 10.9336ZM48.8303 7.01673C47.8449 7.19589 46.5444 8.30793 46.5506 9.27479C46.5503 9.29728 46.5572 9.31912 46.5705 9.33713C46.5837 9.35514 46.6026 9.36838 46.6243 9.37493C46.646 9.38147 46.6694 9.38098 46.6912 9.37353C46.7129 9.36608 46.7318 9.35205 46.7452 9.33348C47.3342 8.47474 48.0426 7.73338 48.8704 7.1094C48.9899 7.02085 48.9765 6.98996 48.8303 7.01673ZM52.4815 7.19898C51.2273 7.53259 49.099 8.95971 48.5028 10.2355C48.495 10.2525 48.4912 10.2712 48.4916 10.2899C48.4921 10.3087 48.4968 10.3271 48.5054 10.3438C48.5141 10.3605 48.5264 10.375 48.5415 10.3862C48.5565 10.3974 48.574 10.405 48.5924 10.4085C50.5261 10.7318 52.0737 10.1747 53.2352 8.7373C53.748 8.10715 53.5626 6.90861 52.4815 7.19898Z" fill="#9E9E9E"/>
<path d="M-24.3527 9.16001L-28.1367 9.05807C-27.8402 8.31053 -27.3851 7.68553 -26.7714 7.18305C-26.689 7.11509 -26.621 7.03375 -26.5675 6.93902L-26.2123 6.31195C-26.2012 6.29208 -26.1859 6.27484 -26.1675 6.26138C-26.1491 6.24792 -26.128 6.23855 -26.1055 6.23387C-26.083 6.2292 -26.0597 6.22934 -26.0371 6.23428C-26.0145 6.23922 -25.9931 6.24885 -25.9744 6.26252L-23.6021 8.01399C-23.5684 8.03826 -23.5452 8.07441 -23.5372 8.11512C-23.5292 8.15584 -23.5369 8.19808 -23.5588 8.23331L-24.0222 9.01174C-24.0462 9.05194 -24.0794 9.08582 -24.1192 9.11054C-24.159 9.13526 -24.2041 9.1501 -24.2507 9.15383L-24.3527 9.16001Z" fill="#9E9E9E"/>
<path d="M-40.157 14.2259L-42.5664 12.6258C-42.3543 10.7085 -41.7313 8.9416 -40.6976 7.32502C-40.6869 7.30758 -40.6728 7.29253 -40.6561 7.2808C-40.6394 7.26907 -40.6204 7.26093 -40.6004 7.25687C-40.5804 7.25281 -40.5598 7.25292 -40.5398 7.25721C-40.5199 7.2615 -40.501 7.26986 -40.4844 7.28177L-36.9753 9.81785C-36.9331 9.84801 -36.9011 9.89025 -36.8834 9.93901C-36.8657 9.98777 -36.8632 10.0407 -36.8763 10.0909C-36.8893 10.1411 -36.9173 10.1862 -36.9565 10.2201C-36.9957 10.2541 -37.0442 10.2754 -37.0958 10.2812C-39.4146 10.5695 -40.435 11.8844 -40.157 14.2259Z" fill="#9E9E9E"/>
<path d="M67.341 19.6595C67.3694 19.7027 67.4118 19.7348 67.461 19.7504C67.5102 19.7661 67.5633 19.7643 67.6114 19.7455C67.6595 19.7267 67.6997 19.692 67.7253 19.6471C67.7508 19.6022 67.7602 19.5499 67.7518 19.4989C67.3647 17.2007 66.8488 14.9365 66.2042 12.7062C66.18 12.624 66.1782 12.5368 66.1991 12.4537C66.22 12.3707 66.2628 12.2947 66.3231 12.2338C66.3834 12.1729 66.4589 12.1293 66.5417 12.1075C66.6246 12.0857 66.7118 12.0866 66.7942 12.11C67.4017 12.283 67.9073 12.7258 68.3109 13.4383C69.6021 15.7056 70.0006 18.1727 69.5064 20.8395C69.0894 23.0976 67.4213 23.6783 66.0374 21.6365C65.2405 20.4606 64.5176 19.2106 63.8689 17.8864C63.8524 17.8539 63.8255 17.8277 63.7926 17.8119C63.7597 17.796 63.7225 17.7914 63.6867 17.7988C63.6509 17.8062 63.6185 17.8251 63.5945 17.8526C63.5705 17.8802 63.5562 17.9149 63.5539 17.9513C63.4952 18.9861 63.6342 22.9431 62.6179 23.4312C61.5831 23.9255 61.1383 22.2574 61.1228 21.4851C61.0765 19.3414 61.2896 15.9836 62.7631 14.2754C62.808 14.2229 62.8633 14.1802 62.9255 14.1501C62.9877 14.12 63.0555 14.1031 63.1246 14.1005C63.1936 14.0979 63.2625 14.1096 63.3268 14.1349C63.3911 14.1602 63.4495 14.1986 63.4983 14.2476C65.0953 15.8477 66.1363 17.8092 67.341 19.6595Z" fill="#9E9E9E"/>
<path d="M-30.2537 12.2054C-30.8942 12.6358 -31.3194 13.1506 -31.5295 13.7499C-33.0966 13.3936 -34.5969 13.4667 -36.0302 13.9692C-36.6809 13.8951 -37.1741 13.7694 -37.5098 13.5923C-38.0658 13.2999 -38.037 13.0868 -37.4233 12.9529C-35.0242 12.4257 -32.6343 12.1765 -30.2537 12.2054ZM-23.7328 12.7707L-24.3506 13.7221C-25.5862 13.5738 -26.6674 13.4925 -27.5941 13.478C-27.7918 13.4739 -27.8978 13.649 -27.9123 14.0032C-28.7175 13.4904 -29.4351 12.9076 -30.0653 12.2548C-27.9298 12.1312 -25.8189 12.3032 -23.7328 12.7707Z" fill="#6B6B6B" fill-opacity="0.4"/>
<path d="M-30.2512 12.2051L-30.0628 12.2545C-29.4326 12.9073 -28.7149 13.4901 -27.9097 14.0029C-27.9365 14.3818 -28.1651 14.7257 -28.5955 15.0346C-29.0856 14.8143 -29.4655 14.5002 -29.7353 14.0925C-29.7555 14.0623 -29.7827 14.0376 -29.8146 14.0204C-29.8464 14.0032 -29.8821 13.994 -29.9183 13.9937C-29.9545 13.9934 -29.9903 14.002 -30.0225 14.0187C-30.0546 14.0353 -30.0823 14.0596 -30.1029 14.0894L-31.0667 15.498L-32.0706 14.9327C-32.1921 14.5579 -32.0109 14.1635 -31.5269 13.7496C-31.3169 13.1503 -30.8916 12.6355 -30.2512 12.2051ZM-42.5609 12.6283L-40.1514 14.2284C-39.6881 14.6917 -39.2083 14.9605 -38.712 15.0346C-38.5925 15.2199 -38.4412 15.3548 -38.2579 15.4393C-38.2157 15.4594 -38.1789 15.4892 -38.1505 15.5262C-38.122 15.5633 -38.1027 15.6065 -38.0942 15.6524C-38.0509 15.8933 -37.5381 17.2124 -37.844 17.3606C-37.8862 17.3816 -37.9337 17.3896 -37.9804 17.3835C-38.0272 17.3775 -38.071 17.3577 -38.1065 17.3266C-39.5048 16.1178 -41.0308 15.0974 -42.6844 14.2654C-42.7503 13.763 -42.7091 13.2172 -42.5609 12.6283Z" fill="#9E9E9E"/>
<path d="M-23.7298 12.7578C-16.3286 14.1993 -9.51525 17.0392 -3.28987 21.2773C0.951332 24.1624 5.80107 28.9905 5.9895 34.3932C5.75783 34.0534 5.56322 33.7631 5.46437 33.3491C4.5562 29.5188 1.62473 26.266 -1.55385 23.8906C-4.46987 21.6171 -7.61036 19.7122 -10.9753 18.1759C-13.5763 16.8847 -16.2833 15.8715 -19.0963 15.1363C-20.2598 14.8316 -21.3636 14.5227 -22.4077 14.2096C-22.5039 14.1799 -22.607 14.1812 -22.7023 14.2133C-22.7977 14.2455 -22.8805 14.3069 -22.939 14.3888L-38.8011 36.2466L-41.9395 40.7782C-41.9648 40.8152 -42.001 40.8433 -42.0431 40.8588C-42.0852 40.8743 -42.131 40.8764 -42.1743 40.8647L-42.7148 40.7257V39.0267L-42.5326 38.9433C-42.4397 38.903 -42.3596 38.8378 -42.3009 38.7549L-24.3476 13.7092L-23.7298 12.7578Z" fill="#9E9E9E"/>
<path d="M80.3113 19.4406C80.3119 19.461 80.319 19.4807 80.3315 19.4968C80.3441 19.5129 80.3615 19.5246 80.3811 19.5301C80.4008 19.5356 80.4217 19.5347 80.4408 19.5275C80.46 19.5203 80.4763 19.5071 80.4874 19.49C81.4048 18.0104 84.9016 13.1421 86.9959 14.214C87.9566 14.7051 88.2717 16.5678 88.1728 17.4821C87.8423 20.4754 85.2136 24.0864 81.8126 23.586C81.7423 23.5755 81.6706 23.589 81.6094 23.6244C81.5481 23.6598 81.501 23.7149 81.4759 23.7806C80.4915 26.3548 79.7913 28.9897 79.3753 31.6854C79.3506 31.8481 79.293 31.9963 79.2024 32.1302C79.1751 32.1701 79.1399 32.204 79.0989 32.2298C79.058 32.2555 79.0121 32.2725 78.9643 32.2798C78.9165 32.287 78.8677 32.2843 78.821 32.2719C78.7742 32.2594 78.7306 32.2375 78.6927 32.2074C77.8586 31.5464 77.385 30.8308 77.2717 30.0606C76.8269 27.0581 77.8247 24.593 79.085 21.955C79.1064 21.9101 79.1186 21.8615 79.1207 21.8121C79.1228 21.7628 79.1149 21.7136 79.0973 21.6677C77.837 18.4768 79.6039 14.9924 82.1493 13.1235C82.1869 13.0957 82.2318 13.0793 82.2785 13.0766C82.3253 13.0738 82.3718 13.0848 82.4125 13.108C82.4531 13.1313 82.4861 13.1659 82.5074 13.2076C82.5286 13.2493 82.5373 13.2963 82.5323 13.3429C82.3161 15.5515 80.302 17.2566 80.3113 19.4406ZM86.3009 16.3114C85.2043 16.6049 83.4343 19.7155 82.9648 20.7596C82.9009 20.8975 82.9431 20.948 83.0914 20.9109C85.2372 20.3879 86.5048 19.0349 86.894 16.852C86.9077 16.7732 86.9013 16.6922 86.8754 16.6165C86.8494 16.5408 86.8049 16.4729 86.7457 16.419C86.6866 16.3651 86.6149 16.327 86.5371 16.3082C86.4593 16.2894 86.3781 16.2905 86.3009 16.3114Z" fill="#9E9E9E"/>
<path d="M-31.5316 13.7465C-32.0156 14.1604 -32.1968 14.5548 -32.0753 14.9296C-32.1288 14.9481 -32.168 14.9749 -32.1927 15.0099C-32.2184 15.0496 -32.228 15.0976 -32.2194 15.1437C-32.2107 15.1898 -32.1845 15.2305 -32.1463 15.257L-29.8512 16.8448C-29.8113 16.8717 -29.7647 16.8868 -29.7166 16.8884C-29.6686 16.8901 -29.621 16.8782 -29.5794 16.8541C-29.2458 16.6543 -29.0481 16.3732 -28.9863 16.0108L-28.6002 15.0315C-28.1698 14.7226 -27.9412 14.3787 -27.9144 13.9998C-27.9 13.6456 -27.7939 13.4706 -27.5962 13.4747C-26.6695 13.4891 -25.5884 13.5704 -24.3528 13.7187L-42.3061 38.7644C-42.3647 38.8473 -42.4449 38.9124 -42.5378 38.9528L-42.72 39.0362C-42.7983 37.5391 -42.755 36.046 -42.5903 34.5571C-42.1825 33.2412 -41.7315 33.1671 -40.9315 32.2002C-40.904 32.168 -40.8894 32.1267 -40.8905 32.084C-40.8917 32.0413 -40.9084 32.0002 -40.9377 31.9685C-41.4401 31.4063 -42.0343 31.0079 -42.72 30.7731V24.3634C-41.0828 22.683 -39.7206 20.3971 -38.3707 18.4603C-37.9506 17.8569 -37.6087 17.2103 -37.3451 16.5204C-37.3282 16.4764 -37.3 16.4377 -37.2637 16.4084C-37.2273 16.3791 -37.184 16.3602 -37.1382 16.3536C-36.5698 16.2671 -35.5195 16.2115 -35.5504 15.4177C-35.5513 15.3707 -35.568 15.3254 -35.5976 15.289C-35.6273 15.2526 -35.6683 15.2272 -35.7141 15.2169L-36.6316 15.0068L-35.6616 14.7628C-35.6162 14.751 -35.5755 14.7257 -35.5451 14.6903C-35.5147 14.655 -35.4961 14.6112 -35.4917 14.5651C-35.467 14.3036 -35.6472 14.1038 -36.0323 13.9658C-34.599 13.4634 -33.0988 13.3902 -31.5316 13.7465ZM-36.2455 21.0304C-36.3011 20.9954 -36.3649 21.0098 -36.437 21.0736C-36.4566 21.0907 -36.4721 21.112 -36.4822 21.1359C-36.4924 21.1599 -36.4969 21.1858 -36.4954 21.2118C-36.4939 21.2378 -36.4864 21.263 -36.4736 21.2857C-36.4608 21.3083 -36.443 21.3277 -36.4215 21.3424L-34.1388 22.9085C-34.0913 22.9406 -34.0349 22.9567 -33.9776 22.9545C-33.9204 22.9523 -33.8654 22.9318 -33.8206 22.8961C-33.6394 22.7499 -33.5982 22.6171 -33.697 22.4977C-33.5364 21.9396 -33.279 21.433 -32.9248 20.9779L-32.1865 20.2211C-32.1732 20.2076 -32.1631 20.1914 -32.1567 20.1736C-32.1504 20.1557 -32.148 20.1367 -32.1498 20.1179C-32.1515 20.0991 -32.1574 20.0808 -32.1669 20.0645C-32.1765 20.0482 -32.1895 20.0341 -32.205 20.0234L-34.6268 18.3399C-34.6639 18.3136 -34.7097 18.3028 -34.7542 18.3098C-34.7987 18.3167 -34.8384 18.3408 -34.8647 18.3769C-35.4001 19.1039 -35.9396 19.8092 -36.4833 20.4929C-36.6481 20.7009 -36.5688 20.8801 -36.2455 21.0304ZM-40.8975 26.8624C-40.7801 27.3443 -40.3724 27.5482 -40.1283 27.8138C-39.5352 28.4687 -38.8588 28.7045 -38.0989 28.5212L-37.4038 27.0787L-36.5574 26.118C-36.543 26.1018 -36.532 26.0828 -36.5254 26.0622C-36.5187 26.0415 -36.5165 26.0197 -36.5188 25.9982C-36.5211 25.9766 -36.528 25.9558 -36.5389 25.937C-36.5498 25.9183 -36.5646 25.9021 -36.5822 25.8894L-38.9267 24.1935C-38.9424 24.1821 -38.9602 24.1739 -38.9791 24.1696C-38.9981 24.1652 -39.0178 24.1648 -39.0371 24.1682C-39.0564 24.1717 -39.0749 24.179 -39.0915 24.1897C-39.108 24.2004 -39.1224 24.2143 -39.1337 24.2306L-40.8975 26.8624Z" fill="#6B6B6B" fill-opacity="0.4"/>
<path d="M52.8877 16.4066C52.8482 16.4195 52.8144 16.4458 52.7921 16.4809C52.7698 16.516 52.7604 16.5577 52.7655 16.599C52.7706 16.6402 52.7899 16.6784 52.8201 16.707C52.8503 16.7356 52.8895 16.7528 52.9309 16.7557C54.3457 16.8772 55.7502 17.0172 57.1444 17.1758C59.387 17.4322 60.7585 18.0531 60.6411 20.5119C60.5886 21.5683 60.4002 22.1522 59.4117 22.668C57.237 23.7924 53.1534 24.0581 51.5996 21.5838C50.747 20.2215 51.578 18.9921 53.107 18.8253C54.7174 18.6482 56.263 18.9046 57.7436 19.5945C57.7995 19.6207 57.8476 19.661 57.8831 19.7114C57.9187 19.7618 57.9405 19.8206 57.9464 19.882C57.9523 19.9434 57.9422 20.0053 57.9169 20.0616C57.8916 20.1179 57.8521 20.1666 57.8023 20.203C56.5173 21.1204 55.0284 20.7837 53.663 20.132C53.1842 19.9034 52.5108 19.9652 52.3101 20.4625C52.2842 20.526 52.2724 20.5945 52.2756 20.663C52.2788 20.7316 52.297 20.7986 52.3287 20.8595C52.3604 20.9204 52.4051 20.9736 52.4595 21.0154C52.5139 21.0573 52.5767 21.0868 52.6437 21.1019C54.0615 21.4293 57.9104 21.5622 58.8309 20.1134C58.8833 20.0304 58.9164 19.9367 58.9278 19.8394C58.9392 19.742 58.9286 19.6434 58.8968 19.5511C58.8651 19.4587 58.8129 19.3749 58.7443 19.306C58.6756 19.237 58.5923 19.1846 58.5004 19.1527C57.2483 18.7141 55.9839 18.4979 54.7071 18.5041C53.1194 18.5102 49.8636 18.5905 50.9818 15.7456C52.032 13.0829 58.2996 13.3516 60.4372 13.8088C61.7377 14.0868 60.6813 15.3687 59.7669 15.4398C57.5119 15.6097 55.016 15.6714 52.8877 16.4066ZM73.9671 17.2808L76.636 17.2561C76.6835 17.2556 76.7307 17.2649 76.7745 17.2836C76.8183 17.3023 76.8579 17.3299 76.8906 17.3646C76.9234 17.3994 76.9487 17.4407 76.9649 17.4858C76.9812 17.5309 76.988 17.5789 76.985 17.6268L76.9078 18.7697C76.9041 18.8236 76.8809 18.8741 76.8427 18.9118C76.8045 18.9494 76.754 18.9714 76.7008 18.9736L73.2628 19.128C73.2088 19.1307 73.157 19.1503 73.1148 19.1842C73.0727 19.218 73.0423 19.2643 73.028 19.3165L72.6264 20.8239C72.6196 20.8488 72.6192 20.8751 72.6254 20.9002C72.6316 20.9253 72.6441 20.9484 72.6618 20.9673C72.6795 20.9862 72.7017 21.0003 72.7263 21.0082C72.7509 21.016 72.7772 21.0175 72.8025 21.0123C73.7756 20.8332 76.5557 20.0486 77.2538 20.7652C78.6994 22.2417 73.0867 24.9446 71.2426 23.6689C69.7877 22.6619 70.2263 20.9351 70.7483 19.3226C70.7767 19.2315 70.7809 19.1357 70.7607 19.0446L70.5445 18.084C70.5315 18.0256 70.5311 17.9652 70.5432 17.9066C70.5553 17.8481 70.5796 17.7928 70.6146 17.7443C70.6496 17.6959 70.6945 17.6554 70.7463 17.6255C70.7981 17.5957 70.8557 17.5772 70.9151 17.5712C71.3805 17.5279 71.6678 17.2849 71.777 16.8422C71.8017 16.7454 71.8408 16.6568 71.8944 16.5765L72.1724 16.1626C72.1851 16.1438 72.1929 16.1221 72.195 16.0995C72.1972 16.0769 72.1937 16.0541 72.1848 16.0332C72.1759 16.0123 72.1619 15.994 72.144 15.9799C72.1262 15.9658 72.1052 15.9564 72.0828 15.9525C71.4011 15.8269 70.9028 15.4501 70.5877 14.822C70.553 14.7536 70.5346 14.6781 70.5339 14.6014C70.5332 14.5247 70.5503 14.4488 70.5837 14.3795C70.6171 14.3103 70.6661 14.2495 70.7268 14.202C70.7874 14.1544 70.8582 14.1214 70.9337 14.1053C72.8942 13.6976 74.7785 13.4855 76.5866 13.469C77.8407 13.4566 78.7211 13.9447 78.8786 15.2143C78.8863 15.2784 78.8809 15.3434 78.8628 15.4054C78.8447 15.4674 78.8143 15.5251 78.7733 15.5751C78.7323 15.625 78.6817 15.6661 78.6244 15.6959C78.5671 15.7258 78.5044 15.7437 78.44 15.7487L74.4459 16.0545C74.3983 16.0582 74.3525 16.0748 74.3134 16.1025C74.2743 16.1302 74.2432 16.168 74.2235 16.212L73.8312 17.0646C73.8202 17.0876 73.8153 17.113 73.8168 17.1384C73.8183 17.1638 73.8262 17.1884 73.8398 17.21C73.8533 17.2316 73.8721 17.2494 73.8943 17.2617C73.9166 17.2741 73.9416 17.2807 73.9671 17.2808ZM48.1368 13.8613C48.1649 13.8028 48.2061 13.7514 48.2571 13.7112C48.3081 13.671 48.3676 13.643 48.431 13.6293C48.4945 13.6156 48.5603 13.6165 48.6233 13.6321C48.6863 13.6477 48.745 13.6775 48.7948 13.7192C49.357 14.1918 49.6257 14.859 49.6751 15.6436C49.8358 18.1735 50.086 20.8733 49.7956 23.397C49.7899 23.4474 49.7717 23.4957 49.7427 23.5377C49.7136 23.5797 49.6745 23.6142 49.6288 23.638C48.943 23.9942 48.3325 23.8975 47.797 23.3476C47.7211 23.2697 47.6752 23.1679 47.6673 23.0603C47.4974 20.6108 47.6302 18.26 47.6518 15.8166C47.6601 15.1659 47.8217 14.5141 48.1368 13.8613Z" fill="#9E9E9E"/>
<path d="M-28.5913 15.0233L-28.9774 16.0025C-29.6138 16.9292 -30.5065 15.8604 -31.0625 15.4866L-30.0987 14.0781C-30.0781 14.0483 -30.0505 14.024 -30.0183 14.0073C-29.9861 13.9907 -29.9504 13.9821 -29.9141 13.9824C-29.8779 13.9827 -29.8423 13.9919 -29.8104 14.0091C-29.7785 14.0263 -29.7513 14.051 -29.7311 14.0812C-29.4614 14.4889 -29.0814 14.8029 -28.5913 15.0233Z" fill="#9E9E9E"/>
<path d="M-10.9755 18.1791C-11.5964 19.0162 -12.1895 18.8711 -13.0606 19.1429C-13.7062 19.3468 -14.2004 19.4641 -14.9788 19.5043C-15.9529 19.5558 -16.7962 19.9007 -17.5087 20.5391L-18.3644 19.6464C-18.4196 19.589 -18.4882 19.5461 -18.564 19.5217C-18.6398 19.4973 -18.7205 19.492 -18.7988 19.5064C-18.8772 19.5208 -18.9507 19.5543 -19.0129 19.6041C-19.0751 19.6539 -19.124 19.7183 -19.1552 19.7916C-20.3414 22.5439 -20.3661 25.5866 -20.6194 28.5242C-20.6227 28.5684 -20.6408 28.6104 -20.6709 28.6439C-20.701 28.6773 -20.7415 28.7004 -20.7862 28.7095C-24.3632 29.4231 -27.9836 30.3467 -30.9768 32.4658C-32.4781 30.5876 -30.6154 28.0856 -32.0703 26.9704L-22.9392 14.392C-22.8807 14.3101 -22.7979 14.2487 -22.7025 14.2165C-22.6071 14.1843 -22.5041 14.1831 -22.4079 14.2128C-21.3638 14.5259 -20.26 14.8348 -19.0965 15.1395C-16.2834 15.8747 -13.5764 16.8879 -10.9755 18.1791Z" fill="#9E9E9E"/>
<path d="M-38.7115 15.0231C-38.0134 15.1322 -37.3184 15.124 -36.6264 14.9984L-35.709 15.2084C-35.6632 15.2188 -35.6222 15.2442 -35.5925 15.2806C-35.5628 15.317 -35.5462 15.3622 -35.5453 15.4092C-35.5144 16.2031 -36.5646 16.2587 -37.133 16.3452C-37.1788 16.3517 -37.2221 16.3706 -37.2585 16.3999C-37.2949 16.4292 -37.323 16.4679 -37.34 16.512C-37.6036 17.2018 -37.9454 17.8485 -38.3655 18.4519C-39.7154 20.3887 -41.0777 22.6745 -42.7148 24.355L-42.684 14.2539C-41.0303 15.0859 -39.5043 16.1063 -38.106 17.3151C-38.0706 17.3462 -38.0267 17.366 -37.9799 17.372C-37.9332 17.3781 -37.8857 17.3701 -37.8435 17.3491C-37.5377 17.2008 -38.0504 15.8818 -38.0937 15.6409C-38.1023 15.595 -38.1216 15.5517 -38.15 15.5147C-38.1785 15.4776 -38.2153 15.4479 -38.2574 15.4277C-38.4407 15.3433 -38.5921 15.2084 -38.7115 15.0231Z" fill="#9E9E9E"/>
<path d="M-32.0638 14.9219L-31.0598 15.4872C-30.5038 15.8609 -29.6111 16.9297 -28.9748 16.003C-29.0365 16.3655 -29.2342 16.6466 -29.5679 16.8463C-29.6095 16.8704 -29.657 16.8823 -29.7051 16.8807C-29.7532 16.8791 -29.7998 16.8639 -29.8397 16.8371L-32.1348 15.2493C-32.173 15.2227 -32.1992 15.1821 -32.2078 15.136C-32.2165 15.0899 -32.2069 15.0419 -32.1811 15.0022C-32.1564 14.9672 -32.1173 14.9404 -32.0638 14.9219Z" fill="#9E9E9E"/>
<path d="M-10.9668 18.1738C-7.6018 19.7101 -4.46131 21.615 -1.54529 23.8885C-1.39084 24.6031 -1.28272 25.3218 -1.22094 26.0446C-1.07885 27.7065 -0.701984 29.3468 -0.797745 31.0766C-0.803772 31.171 -0.839401 31.2617 -0.899681 31.3361L-1.57 32.1516C-2.73146 30.8789 -4.14314 29.9996 -5.80502 29.5136C-5.38492 28.5189 -5.99345 27.5273 -6.49078 26.4585C-6.97267 25.4268 -8.01675 24.877 -8.94345 24.3179C-9.06393 24.2468 -9.27398 24.2067 -9.29869 24.0306C-9.30338 23.9879 -9.31996 23.9472 -9.34665 23.9128C-9.37333 23.8785 -9.4091 23.852 -9.45005 23.836C-11.5722 23.0205 -14.2102 23.3016 -16.3725 23.8113C-16.5002 22.6827 -16.876 21.5903 -17.5 20.5338C-16.7875 19.8954 -15.9442 19.5505 -14.9701 19.499C-14.1917 19.4589 -13.6974 19.3415 -13.0518 19.1376C-12.1807 18.8658 -11.5876 19.0109 -10.9668 18.1738Z" fill="#9E9E9E"/>
<path d="M-32.9205 20.9807L-33.943 20.3444C-34.0361 20.287 -34.1463 20.264 -34.2546 20.2792C-34.3629 20.2944 -34.4624 20.347 -34.5361 20.4278L-35.469 21.444L-36.2412 21.0332C-36.5645 20.8829 -36.6438 20.7037 -36.4791 20.4957C-35.9354 19.812 -35.3959 19.1067 -34.8604 18.3798C-34.8342 18.3437 -34.7945 18.3195 -34.75 18.3126C-34.7055 18.3057 -34.6597 18.3165 -34.6226 18.3427L-32.2008 20.0262C-32.1853 20.037 -32.1723 20.051 -32.1627 20.0673C-32.1532 20.0837 -32.1473 20.1019 -32.1455 20.1207C-32.1438 20.1396 -32.1461 20.1586 -32.1525 20.1764C-32.1588 20.1942 -32.169 20.2104 -32.1823 20.2239L-32.9205 20.9807Z" fill="#9E9E9E"/>
<path d="M-32.9125 20.9795C-33.2667 21.4346 -33.5241 21.9412 -33.6848 22.4993C-34.3746 22.3222 -34.9667 21.97 -35.4609 21.4428L-34.5281 20.4266C-34.4544 20.3458 -34.3548 20.2932 -34.2465 20.278C-34.1383 20.2628 -34.0281 20.2858 -33.935 20.3432L-32.9125 20.9795Z" fill="#9E9E9E"/>
<path d="M-36.2381 21.0245L-35.4658 21.4353C-34.9716 21.9625 -34.3795 22.3146 -33.6897 22.4917C-33.5908 22.6112 -33.632 22.744 -33.8132 22.8902C-33.858 22.9259 -33.9131 22.9464 -33.9703 22.9486C-34.0275 22.9508 -34.084 22.9347 -34.1314 22.9026L-36.4142 21.3364C-36.4356 21.3218 -36.4535 21.3024 -36.4663 21.2798C-36.4791 21.2571 -36.4865 21.2318 -36.488 21.2059C-36.4895 21.1799 -36.485 21.154 -36.4749 21.13C-36.4648 21.106 -36.4493 21.0847 -36.4296 21.0677C-36.3575 21.0039 -36.2937 20.9894 -36.2381 21.0245ZM-5.8114 29.5192C-9.09192 28.436 -12.4589 28.0427 -15.9124 28.3392C-15.9328 28.3413 -15.9534 28.3393 -15.973 28.3332C-15.9926 28.3272 -16.0107 28.3172 -16.0263 28.3039C-16.0419 28.2906 -16.0546 28.2743 -16.0637 28.2559C-16.0728 28.2376 -16.0781 28.2176 -16.0792 28.1971L-16.3789 23.8169C-14.2166 23.3072 -11.5786 23.0261 -9.45642 23.8416C-9.41547 23.8576 -9.3797 23.8842 -9.35302 23.9185C-9.32633 23.9528 -9.30975 23.9935 -9.30506 24.0362C-9.28035 24.2123 -9.0703 24.2525 -8.94983 24.3235C-8.02312 24.8826 -6.97904 25.4325 -6.49716 26.4642C-5.99983 27.533 -5.3913 28.5246 -5.8114 29.5192Z" fill="#9E9E9E"/>
<path d="M-1.55469 23.8926C1.6239 26.268 4.55537 29.5207 5.46353 33.3511C5.56238 33.765 5.75699 34.0554 5.98867 34.3952C6.0906 44.5457 -9.20615 45.5928 -16.0421 44.2028C-16.086 44.1943 -16.1257 44.1709 -16.1544 44.1366C-16.1831 44.1022 -16.1991 44.0591 -16.1997 44.0143L-16.3047 33.9318L-16.0081 33.867C-16.0926 34.6351 -15.9608 35.3518 -15.6128 36.0169C-15.5906 36.06 -15.5587 36.0972 -15.5195 36.1256C-15.4803 36.1541 -15.435 36.1729 -15.3873 36.1806C-13.6842 36.4669 -12.0244 36.3392 -10.4078 35.7976C-9.88573 35.6215 -9.40076 35.671 -9.06715 35.0624C-9.04399 35.0208 -9.01206 34.9849 -8.97362 34.9571C-8.93518 34.9294 -8.89117 34.9105 -8.84474 34.9018C-8.5276 34.8462 -8.26401 34.7072 -8.05396 34.4848C-6.79982 34.6104 -5.69292 35.0737 -4.73327 35.8748L-6.76584 37.0456C-6.79559 37.0632 -6.82053 37.0879 -6.83844 37.1175C-6.85635 37.147 -6.86668 37.1806 -6.86851 37.2151C-6.87035 37.2497 -6.86362 37.2841 -6.84895 37.3154C-6.83427 37.3467 -6.81209 37.3739 -6.78437 37.3946L-6.43223 37.651C-6.70818 37.7869 -6.8441 38.0196 -6.83998 38.3491C-6.83898 38.3987 -6.82745 38.4474 -6.80614 38.4922C-6.78484 38.5369 -6.75425 38.5766 -6.71642 38.6086C-5.79795 39.3664 -4.793 39.5981 -3.70155 39.3036C-1.71429 38.7661 -0.754631 37.4409 -0.82259 35.3281C-0.631073 34.1501 -0.883339 33.0927 -1.5794 32.1557L-0.909084 31.3402C-0.848801 31.2658 -0.813175 31.1751 -0.807144 31.0807C-0.711384 29.3508 -1.08825 27.7106 -1.23034 26.0487C-1.29212 25.3259 -1.40024 24.6072 -1.55469 23.8926Z" fill="#9E9E9E"/>
<path d="M-37.4048 27.0709C-37.6931 26.6179 -38.0874 26.2945 -38.5879 26.101C-38.6309 26.0848 -38.6784 26.0846 -38.7219 26.1005C-38.7655 26.1163 -38.8022 26.1471 -38.8257 26.1875L-39.6443 27.6115L-40.8984 26.8547L-39.1346 24.2229C-39.1233 24.2066 -39.109 24.1927 -39.0924 24.182C-39.0758 24.1712 -39.0573 24.1639 -39.038 24.1605C-39.0187 24.157 -38.999 24.1575 -38.9801 24.1618C-38.9611 24.1662 -38.9433 24.1743 -38.9277 24.1858L-36.5831 25.8816C-36.5655 25.8943 -36.5507 25.9105 -36.5398 25.9293C-36.5289 25.948 -36.5221 25.9689 -36.5197 25.9904C-36.5174 26.012 -36.5196 26.0338 -36.5263 26.0544C-36.533 26.0751 -36.5439 26.0941 -36.5584 26.1102L-37.4048 27.0709Z" fill="#9E9E9E"/>
<path d="M-37.3894 27.0701L-38.0844 28.5126C-38.6754 28.3479 -39.1903 28.0472 -39.6289 27.6107L-38.8103 26.1866C-38.7868 26.1463 -38.7501 26.1155 -38.7065 26.0996C-38.663 26.0838 -38.6155 26.084 -38.5725 26.1001C-38.072 26.2937 -37.6777 26.617 -37.3894 27.0701Z" fill="#9E9E9E"/>
<path d="M-40.8984 26.8613L-39.6443 27.6181C-39.2057 28.0547 -38.6908 28.3554 -38.0998 28.5201C-38.8597 28.7034 -39.5362 28.4676 -40.1293 27.8127C-40.3733 27.5471 -40.7811 27.3432 -40.8984 26.8613Z" fill="#9E9E9E"/>
<path d="M65.1594 29.6009L63.6336 29.6249C63.562 29.626 63.5048 29.685 63.5059 29.7567L63.5286 31.2022C63.5298 31.2738 63.5888 31.331 63.6604 31.3298L65.1862 31.3059C65.2578 31.3047 65.315 31.2458 65.3139 31.1741L65.2912 29.7286C65.29 29.657 65.231 29.5998 65.1594 29.6009Z" fill="#9E9E9E"/>
<path d="M34.4098 32.7907L29.5693 39.9293C29.5597 39.9434 29.5468 39.9548 29.5317 39.9627C29.5166 39.9707 29.4999 39.9748 29.4828 39.9748C29.4658 39.9748 29.4491 39.9707 29.434 39.9627C29.4189 39.9548 29.406 39.9434 29.3964 39.9293L24.5837 32.8401C24.5709 32.8215 24.5524 32.8075 24.531 32.8002C24.5096 32.7929 24.4864 32.7927 24.4649 32.7997C24.4434 32.8066 24.4247 32.8203 24.4116 32.8387C24.3985 32.8571 24.3917 32.8793 24.3922 32.9019V43.7165C24.3922 43.7443 24.3811 43.771 24.3614 43.7907C24.3417 43.8104 24.315 43.8215 24.2871 43.8215H22.9527C22.9248 43.8215 22.8981 43.8104 22.8784 43.7907C22.8587 43.771 22.8477 43.7443 22.8477 43.7165V29.9488C22.8477 29.9209 22.8587 29.8942 22.8784 29.8745C22.8981 29.8548 22.9248 29.8438 22.9527 29.8438H24.386C24.4031 29.8438 24.4199 29.8481 24.435 29.8562C24.4501 29.8643 24.4629 29.8759 24.4725 29.8901L29.418 37.3469C29.4276 37.361 29.4405 37.3724 29.4556 37.3803C29.4707 37.3882 29.4874 37.3924 29.5045 37.3924C29.5215 37.3924 29.5383 37.3882 29.5533 37.3803C29.5684 37.3724 29.5813 37.361 29.591 37.3469L34.5488 29.8901C34.5584 29.8759 34.5712 29.8643 34.5863 29.8562C34.6014 29.8481 34.6182 29.8438 34.6353 29.8438H36.0285C36.0563 29.8438 36.083 29.8548 36.1027 29.8745C36.1224 29.8942 36.1335 29.9209 36.1335 29.9488L36.1304 43.7165C36.1304 43.7308 36.1275 43.745 36.1218 43.7581C36.1162 43.7713 36.1079 43.7832 36.0975 43.793C36.0871 43.8028 36.0747 43.8104 36.0613 43.8153C36.0478 43.8202 36.0335 43.8223 36.0192 43.8215L34.6291 43.7566C34.6153 43.7562 34.6017 43.7531 34.5892 43.7475C34.5766 43.7418 34.5652 43.7337 34.5557 43.7237C34.5463 43.7136 34.5389 43.7018 34.534 43.6889C34.5291 43.676 34.5268 43.6623 34.5272 43.6485L34.6013 32.8493C34.6011 32.827 34.5938 32.8053 34.5805 32.7874C34.5671 32.7695 34.5484 32.7564 34.5271 32.7498C34.5057 32.7433 34.4828 32.7437 34.4618 32.751C34.4407 32.7584 34.4225 32.7723 34.4098 32.7907Z" fill="#9E9E9E"/>
<path d="M-42.7159 30.7715C-42.0302 31.0062 -41.4361 31.4047 -40.9336 31.9669C-40.9044 31.9986 -40.8876 32.0397 -40.8865 32.0824C-40.8853 32.1251 -40.8999 32.1664 -40.9274 32.1986C-41.7275 33.1655 -42.1785 33.2396 -42.5862 34.5555C-42.7571 33.3014 -42.8004 32.04 -42.7159 30.7715Z" fill="#9E9E9E"/>
<path d="M-4.7205 35.8769C-5.68016 35.0758 -6.78705 34.6124 -8.04119 34.4868C-10.6689 33.9596 -13.3203 33.7537 -15.9954 33.869L-16.2919 33.9339L-16.3475 32.6952C-16.3484 32.6758 -16.3452 32.6563 -16.3383 32.6382C-16.3313 32.62 -16.3207 32.6035 -16.3071 32.5896C-16.2935 32.5757 -16.2772 32.5647 -16.2591 32.5574C-16.2411 32.55 -16.2218 32.5465 -16.2023 32.5469C-14.7073 32.5747 -4.07491 32.9269 -4.23244 35.2282C-4.25304 35.5247 -4.41572 35.7409 -4.7205 35.8769Z" fill="#9E9E9E"/>
<path d="M-20.6546 33.8526C-23.0702 34.3036 -29.2297 34.319 -30.9008 36.401C-31.5557 35.3878 -31.0121 34.77 -30.0421 34.3932C-27.0828 33.241 -23.861 32.9846 -20.7257 32.651C-20.706 32.6491 -20.6862 32.6516 -20.6676 32.6582C-20.6489 32.6648 -20.632 32.6754 -20.6179 32.6892C-20.6038 32.703 -20.5928 32.7197 -20.5858 32.7382C-20.5788 32.7567 -20.576 32.7765 -20.5774 32.7962L-20.6546 33.8526ZM49.6419 38.6622C49.6419 39.3664 49.5032 40.0637 49.2337 40.7143C48.9642 41.3649 48.5692 41.9561 48.0712 42.4541C47.5733 42.952 46.9821 43.347 46.3315 43.6165C45.6809 43.886 44.9836 44.0247 44.2794 44.0247C43.5751 44.0247 42.8778 43.886 42.2272 43.6165C41.5766 43.347 40.9854 42.952 40.4875 42.4541C39.9895 41.9561 39.5945 41.3649 39.325 40.7143C39.0555 40.0637 38.9168 39.3664 38.9168 38.6622C38.9168 37.24 39.4818 35.876 40.4875 34.8703C41.4931 33.8647 42.8571 33.2997 44.2794 33.2997C45.7016 33.2997 47.0656 33.8647 48.0712 34.8703C49.0769 35.876 49.6419 37.24 49.6419 38.6622ZM44.5533 42.6189C45.0446 42.5845 45.5239 42.448 45.9638 42.2171C46.4038 41.9862 46.7958 41.6654 47.1174 41.2732C47.439 40.8809 47.684 40.4247 47.8384 39.9308C47.9927 39.4369 48.0535 38.9148 48.017 38.3944C47.9436 37.3434 47.479 36.363 46.7255 35.6689C45.972 34.9748 44.9913 34.6238 43.9992 34.6931C43.5079 34.7275 43.0286 34.864 42.5887 35.0949C42.1487 35.3258 41.7568 35.6466 41.4351 36.0389C41.1135 36.4311 40.8685 36.8873 40.7141 37.3812C40.5598 37.8752 40.4991 38.3972 40.5355 38.9176C40.6089 39.9686 41.0735 40.949 41.827 41.6431C42.5805 42.3372 43.5612 42.6882 44.5533 42.6189ZM69.3065 34.9925C71.6448 32.1042 76.1363 33.0464 77.3286 36.4999C77.5922 37.266 77.7013 38.136 77.656 39.1101C77.6544 39.15 77.6375 39.1877 77.6087 39.2153C77.5799 39.243 77.5415 39.2584 77.5016 39.2584H69.7791C69.7564 39.2585 69.734 39.2635 69.7135 39.2733C69.6929 39.283 69.6747 39.2972 69.66 39.3148C69.6453 39.3324 69.6346 39.353 69.6285 39.3753C69.6224 39.3975 69.6211 39.4209 69.6246 39.4437C70.2146 42.9899 73.7515 43.5768 76.2444 41.3589C76.2869 41.3216 76.3417 41.3014 76.3986 41.302C76.4555 41.3025 76.5105 41.3239 76.5533 41.362L77.2174 41.9674C77.2344 41.9826 77.2481 42.0011 77.2578 42.0217C77.2675 42.0424 77.2729 42.0647 77.2738 42.0875C77.2746 42.1102 77.2709 42.133 77.2628 42.1543C77.2547 42.1756 77.2424 42.195 77.2267 42.2115C72.1391 47.5122 64.8645 40.4723 69.3065 34.9925ZM76.0281 37.8652C75.8088 33.4541 69.8316 33.7198 69.6524 37.8714C69.6516 37.891 69.6547 37.9105 69.6617 37.9289C69.6686 37.9472 69.6791 37.9639 69.6927 37.9781C69.7063 37.9922 69.7226 38.0035 69.7406 38.0112C69.7586 38.0188 69.778 38.0228 69.7976 38.0228H75.8768C75.8975 38.0228 75.9179 38.0186 75.9369 38.0106C75.9559 38.0026 75.973 37.9908 75.9872 37.976C76.0014 37.9613 76.0124 37.9438 76.0194 37.9248C76.0264 37.9057 76.0294 37.8854 76.0281 37.8652ZM81.4339 33.9916C83.0618 32.7993 85.5701 33.414 87.2103 34.3592C87.2569 34.3863 87.2909 34.4308 87.3048 34.4829C87.3187 34.535 87.3114 34.5905 87.2845 34.6372L86.7871 35.5114C86.775 35.5321 86.7588 35.5501 86.7395 35.5644C86.7203 35.5786 86.6985 35.5888 86.6753 35.5943C86.6522 35.5998 86.6282 35.6005 86.6049 35.5963C86.5817 35.5922 86.5596 35.5832 86.54 35.5701C85.4805 34.872 82.4286 33.8464 81.8077 35.6628C81.5276 36.4824 81.854 37.0508 82.7869 37.3679C84.1481 37.8333 85.2015 38.2235 85.9469 38.5386C88.7023 39.7063 87.8745 43.2154 85.1747 43.793C83.2595 44.2028 81.4813 43.8023 79.84 42.5914C79.8075 42.567 79.7852 42.5315 79.7778 42.4919C79.7703 42.4524 79.7782 42.4118 79.7998 42.3783L80.3558 41.5473C80.3806 41.5111 80.4178 41.4853 80.4601 41.475C80.5024 41.4647 80.5468 41.4707 80.5844 41.4917C82.0239 42.2794 83.4109 43.0424 85.048 42.4926C85.9294 42.196 86.2847 41.5875 86.1137 40.667C86.0936 40.5682 86.0453 40.478 85.9747 40.4075C84.6619 39.107 82.549 39.2615 81.1528 38.2019C79.6485 37.059 80.0284 35.0233 81.4339 33.9916ZM55.9002 41.8748L59.2178 33.6889C59.2421 33.628 59.2844 33.5759 59.339 33.5395C59.3936 33.5031 59.458 33.4841 59.5236 33.485L60.7715 33.5036C60.7954 33.5041 60.8189 33.5104 60.8397 33.5222C60.8605 33.5339 60.8782 33.5506 60.891 33.5708C60.9038 33.5909 60.9115 33.614 60.9133 33.6378C60.9151 33.6616 60.911 33.6856 60.9013 33.7074L56.5859 43.6355C56.5606 43.6923 56.5205 43.7413 56.47 43.7772C56.4194 43.8131 56.3602 43.8345 56.2987 43.8394L55.3658 43.9104C55.3066 43.9151 55.2474 43.9009 55.1964 43.8698C55.1454 43.8388 55.1053 43.7925 55.0816 43.7374L50.7292 33.6456C50.7207 33.6258 50.7175 33.6042 50.7198 33.5828C50.722 33.5614 50.7297 33.5409 50.742 33.5233C50.7544 33.5057 50.7711 33.4915 50.7904 33.4821C50.8098 33.4727 50.8313 33.4684 50.8528 33.4696L52.2243 33.5561C52.2816 33.5598 52.3366 33.5795 52.383 33.6128C52.4295 33.6461 52.4654 33.6918 52.4868 33.7445L55.7643 41.8748C55.77 41.888 55.7795 41.8992 55.7916 41.9071C55.8037 41.915 55.8178 41.9193 55.8322 41.9193C55.8467 41.9193 55.8608 41.915 55.8728 41.9071C55.8849 41.8992 55.8944 41.888 55.9002 41.8748Z" fill="#9E9E9E"/>
<path d="M65.0367 33.5352H63.7578C63.6845 33.5352 63.625 33.5946 63.625 33.668V43.6825C63.625 43.7559 63.6845 43.8154 63.7578 43.8154H65.0367C65.11 43.8154 65.1695 43.7559 65.1695 43.6825V33.668C65.1695 33.5946 65.11 33.5352 65.0367 33.5352Z" fill="#9E9E9E"/>
<path d="M-8.05233 34.4809C-8.26239 34.7033 -8.52598 34.8423 -8.84312 34.8979C-8.88955 34.9066 -8.93356 34.9255 -8.972 34.9532C-9.01044 34.981 -9.04237 35.017 -9.06553 35.0585C-9.39914 35.6671 -9.88411 35.6176 -10.4062 35.7937C-12.0227 36.3353 -13.6826 36.463 -15.3856 36.1767C-15.4334 36.169 -15.4787 36.1502 -15.5179 36.1218C-15.5571 36.0933 -15.589 36.0561 -15.6111 36.013C-15.9592 35.3479 -16.091 34.6312 -16.0065 33.8631C-13.3314 33.7478 -10.68 33.9537 -8.05233 34.4809Z" fill="#9E9E9E"/>
<path d="M-20.6561 33.8652C-20.5779 36.8245 -20.6777 39.7457 -20.9557 42.6287C-20.9576 42.6455 -20.9631 42.6616 -20.9721 42.6759C-20.981 42.6901 -20.9931 42.7022 -21.0074 42.7111C-21.0217 42.72 -21.0378 42.7256 -21.0545 42.7274C-21.0713 42.7292 -21.0882 42.7271 -21.104 42.7214C-24.1652 41.6125 -29.2343 39.2401 -30.9023 36.4137C-29.2312 34.3317 -23.0717 34.3162 -20.6561 33.8652Z" fill="#9E9E9E"/>
<path d="M-0.830177 35.3262C-0.762218 37.4391 -1.72187 38.7642 -3.70913 39.3017C-4.80058 39.5962 -5.80554 39.3645 -6.724 38.6067C-6.76184 38.5747 -6.79242 38.535 -6.81373 38.4903C-6.83503 38.4455 -6.84657 38.3968 -6.84756 38.3472C-6.85168 38.0177 -6.71577 37.785 -6.43982 37.6491C-5.46575 38.2751 -4.51948 38.445 -3.60102 38.1588C-2.33864 37.7655 -1.41503 36.8213 -0.830177 35.3262Z" fill="#9E9E9E"/>
<path d="M-38.7993 36.248C-38.1846 36.5817 -37.3351 39.0529 -37.0942 39.6923C-36.532 41.1874 -35.7659 42.5733 -34.7959 43.8501L-34.7946 43.8553L-34.7959 43.8594L-34.8237 43.9304C-34.8275 43.9408 -34.8289 43.9514 -34.8278 43.9612C-34.8267 43.971 -34.8232 43.9795 -34.8176 43.986C-33.7632 45.2628 -32.5307 46.5622 -31.12 47.8843C-30.4127 48.5515 -29.523 48.9717 -28.8743 49.4752C-27.2042 50.7746 -25.3652 51.7785 -23.3574 52.4869C-22.7519 52.7001 -22.0847 52.6445 -21.504 53.0337C-21.125 53.287 -20.6946 53.3776 -20.2128 53.3055C-20.1139 53.2911 -20.0161 53.3004 -19.9193 53.3333C-17.6602 54.1138 -15.3352 54.4701 -12.9443 54.4021C-12.9383 54.4022 -12.9324 54.4 -12.9279 54.396C-12.9233 54.392 -12.9204 54.3865 -12.9196 54.3805L-12.9042 54.3033C-12.9014 54.2928 -12.8951 54.2835 -12.8862 54.2768C-12.8773 54.2701 -12.8662 54.2664 -12.8547 54.2662C-10.0293 54.2662 -7.23069 53.9975 -4.45883 53.46C-3.24176 53.2252 -2.17605 53.5279 -0.992966 52.5827C-0.912651 52.5189 -0.822041 52.4787 -0.721134 52.4622C-0.558449 52.4355 -0.349426 52.3613 -0.0940666 52.2398C2.69427 50.9095 5.10267 49.5133 7.13111 48.0511C7.14067 48.0445 7.14847 48.0354 7.15385 48.0247C7.15923 48.0139 7.16203 48.0018 7.16201 47.9893V47.8658C7.1622 47.8592 7.16392 47.8527 7.16703 47.8468C7.17013 47.841 7.17454 47.8359 7.17991 47.832C7.18529 47.8281 7.19148 47.8255 7.19802 47.8244C7.20456 47.8233 7.21125 47.8237 7.21761 47.8256L7.29483 47.8503C7.30474 47.8531 7.31409 47.8552 7.32137 47.8563C7.32866 47.8574 7.33499 47.8565 7.33499 47.8565L10.4642 44.1899C10.5288 44.1151 10.5725 44.0234 10.5908 43.9242C10.7205 43.1983 11.5144 42.979 11.8357 42.3735C12.9045 40.3657 14.1442 38.4783 15.5548 36.7114C15.7134 41.5838 15.7216 44.75 15.5795 46.2101C15.0204 51.9587 11.1777 56.8826 5.58971 58.3931C4.42824 58.7061 2.51511 58.8647 -0.149666 58.8688C-9.66174 58.8853 -19.1646 58.8801 -28.6581 58.8534C-29.4098 57.9864 -30.3313 57.3974 -31.4228 57.0865C-32.5348 56.7714 -33.0599 56.3142 -33.9743 55.7736C-34.7136 55.3391 -35.319 54.9448 -35.7906 54.5906C-37.9282 52.9822 -39.9741 51.2513 -41.9285 49.3979C-43.022 46.729 -42.7409 43.5783 -42.7131 40.7271L-42.1725 40.8661C-42.1292 40.8778 -42.0834 40.8758 -42.0413 40.8603C-41.9993 40.8448 -41.9631 40.8166 -41.9377 40.7796L-38.7993 36.248Z" fill="#9E9E9E"/>
<path d="M-32.3937 36.4103C-30.2623 40.565 -25.2272 44.0525 -20.9613 45.9461C-20.9192 45.9648 -20.883 45.9944 -20.8564 46.0319C-20.8297 46.0694 -20.8137 46.1134 -20.8099 46.1592C-20.7018 47.367 -20.3249 49.4367 -19.2808 50.1657C-17.863 51.1603 -15.7625 49.7981 -16.2196 48.0404C-16.2327 47.989 -16.232 47.935 -16.2177 47.8839C-16.2034 47.8328 -16.1758 47.7863 -16.1378 47.7489C-16.0998 47.7115 -16.0526 47.6845 -16.0009 47.6706C-15.9491 47.6568 -15.8947 47.6565 -15.8428 47.6697C-7.04221 49.9958 4.90916 48.7911 9.69403 39.8082C9.83818 39.9812 9.91747 40.1768 9.93188 40.3951C9.93795 40.4929 9.90961 40.591 9.85157 40.6731C8.94031 41.9458 8.17424 43.4749 7.09618 44.4973C1.18691 50.107 -8.04922 50.7526 -15.5679 48.9949C-15.6034 48.9865 -15.6403 48.9855 -15.6763 48.9921C-15.7123 48.9987 -15.7466 49.0128 -15.777 49.0333C-15.8075 49.0539 -15.8334 49.0806 -15.8532 49.1117C-15.873 49.1429 -15.8863 49.1778 -15.8922 49.2142C-16.1785 50.9853 -17.2153 51.7009 -19.0028 51.3611C-19.1133 51.341 -19.2148 51.287 -19.2932 51.2067C-20.4032 50.0699 -21.056 48.7087 -21.2516 47.123C-21.2582 47.0667 -21.2782 47.0127 -21.3099 46.9654C-21.3416 46.9182 -21.3841 46.879 -21.4339 46.8512C-26.3639 44.1853 -29.9626 41.9458 -32.7952 36.9169C-32.8188 36.8742 -32.8315 36.8265 -32.832 36.7779C-32.8326 36.7294 -32.821 36.6816 -32.7983 36.6389C-32.7118 36.4824 -32.577 36.4062 -32.3937 36.4103ZM61.6665 50.9039C64.0574 49.3316 65.9139 50.0143 66.0468 53.0045C66.1085 54.3451 66.1096 55.6857 66.0498 57.0263C66.0475 57.0689 66.0292 57.109 65.9987 57.1383C65.9683 57.1676 65.928 57.1839 65.8861 57.1839H63.7763C63.7346 57.1839 63.6945 57.1673 63.6649 57.1377C63.6354 57.1082 63.6188 57.0681 63.6188 57.0263C63.6126 56.0935 63.8319 53.3164 63.3562 52.6307C62.5624 51.497 61.5955 52.6492 61.6017 53.6315C61.6079 54.7642 61.6048 55.8958 61.5924 57.0263C61.5924 57.0681 61.5758 57.1082 61.5463 57.1377C61.5167 57.1673 61.4766 57.1839 61.4349 57.1839H59.2849C59.244 57.1839 59.2047 57.1676 59.1757 57.1386C59.1467 57.1097 59.1305 57.0704 59.1305 57.0294V47.9169C59.1305 47.8759 59.1467 47.8366 59.1757 47.8077C59.2047 47.7787 59.244 47.7624 59.2849 47.7624H61.4194C61.4461 47.7624 61.4724 47.7677 61.497 47.778C61.5215 47.7883 61.5438 47.8033 61.5625 47.8223C61.5812 47.8413 61.5959 47.8638 61.6058 47.8885C61.6157 47.9132 61.6206 47.9397 61.6202 47.9663L61.5584 50.8452C61.5564 50.9338 61.5924 50.9534 61.6665 50.9039ZM28.0149 55.5622H24.6572C24.6385 55.5621 24.6203 55.5677 24.6049 55.5781C24.5894 55.5886 24.5775 55.6035 24.5707 55.6208L23.9652 57.1252C23.9584 57.1425 23.9465 57.1574 23.9311 57.1679C23.9156 57.1784 23.8974 57.1839 23.8787 57.1839L21.4323 57.187C21.417 57.1867 21.402 57.1827 21.3887 57.1753C21.3754 57.1679 21.3641 57.1573 21.3558 57.1444C21.3476 57.1316 21.3426 57.1169 21.3414 57.1017C21.3402 57.0865 21.3427 57.0712 21.3488 57.0572L25.136 48.1269C25.1433 48.1101 25.1554 48.0959 25.1708 48.086C25.1862 48.0761 25.2042 48.071 25.2225 48.0713H27.4929C27.5112 48.071 27.5291 48.0761 27.5445 48.086C27.5599 48.0959 27.5721 48.1101 27.5794 48.1269L31.3603 57.048C31.3664 57.062 31.369 57.0772 31.3678 57.0924C31.3665 57.1077 31.3616 57.1223 31.3533 57.1352C31.3451 57.148 31.3338 57.1586 31.3205 57.166C31.3071 57.1734 31.2922 57.1775 31.2769 57.1777L28.7254 57.187C28.7064 57.1868 28.6879 57.1808 28.6724 57.1697C28.6569 57.1587 28.6452 57.1431 28.6389 57.1252L28.1014 55.6239C28.0951 55.606 28.0834 55.5905 28.0679 55.5794C28.0524 55.5684 28.0339 55.5623 28.0149 55.5622ZM25.3893 53.406C25.3832 53.42 25.3806 53.4353 25.3818 53.4505C25.383 53.4657 25.388 53.4804 25.3962 53.4932C25.4045 53.5061 25.4158 53.5167 25.4291 53.5241C25.4424 53.5315 25.4574 53.5355 25.4727 53.5358L27.1191 53.579C27.1341 53.5794 27.149 53.5761 27.1625 53.5694C27.1759 53.5628 27.1875 53.5529 27.1964 53.5408C27.2052 53.5286 27.2109 53.5145 27.213 53.4996C27.2152 53.4848 27.2137 53.4696 27.2087 53.4555L26.4395 51.3735C26.4335 51.3557 26.4221 51.3402 26.4071 51.3291C26.392 51.3179 26.3739 51.3115 26.3552 51.3109C26.3364 51.3102 26.3179 51.3152 26.3021 51.3253C26.2863 51.3354 26.2739 51.35 26.2665 51.3673L25.3893 53.406Z" fill="#9E9E9E"/>
<path d="M-28.6476 58.8539C-34.7484 59.1103 -40.0707 55.1687 -41.918 49.3984C-39.9637 51.2518 -37.9177 52.9827 -35.7801 54.5911C-35.3085 54.9453 -34.7031 55.3396 -33.9638 55.7741C-33.0494 56.3147 -32.5243 56.7719 -31.4123 57.087C-30.3208 57.3979 -29.3993 57.9869 -28.6476 58.8539Z" fill="#9E9E9E"/>
<path d="M77.6388 51.2205C78.4604 50.6429 78.3183 50.1764 79.5539 50.0498C79.579 50.0472 79.6043 50.0499 79.6282 50.0577C79.6521 50.0655 79.6741 50.0783 79.6928 50.0952C79.7114 50.1121 79.7263 50.1328 79.7365 50.1558C79.7466 50.1789 79.7518 50.2038 79.7516 50.229V52.4345C79.7518 52.4852 79.7328 52.534 79.6984 52.5713C79.664 52.6085 79.6168 52.6314 79.5663 52.6353C77.1229 52.8268 77.4689 55.3196 77.5059 57.0155C77.5063 57.0364 77.5026 57.0573 77.4948 57.0767C77.4871 57.0962 77.4756 57.1139 77.4609 57.1289C77.4462 57.1439 77.4287 57.1557 77.4094 57.1638C77.3901 57.172 77.3693 57.1761 77.3484 57.1761H75.2046C75.1661 57.1761 75.1292 57.1608 75.102 57.1336C75.0747 57.1064 75.0594 57.0694 75.0594 57.0309L75.0409 50.4946C75.0405 50.4595 75.0471 50.4246 75.0605 50.392C75.0738 50.3594 75.0935 50.3298 75.1185 50.3048C75.1435 50.2798 75.1733 50.2599 75.2061 50.2464C75.2389 50.2328 75.2741 50.2259 75.3096 50.2259H77.3669C77.3879 50.2258 77.4086 50.2301 77.4278 50.2384C77.4471 50.2468 77.4643 50.2591 77.4786 50.2745C77.4928 50.2899 77.5037 50.308 77.5105 50.3279C77.5173 50.3477 77.52 50.3687 77.5183 50.3896L77.4781 51.1279C77.4678 51.2699 77.5214 51.3008 77.6388 51.2205ZM34.6923 50.9116C35.9434 50.0529 37.6052 49.4721 38.5845 51.0043C39.3196 52.1596 38.9706 55.505 39.0015 56.9815C39.0019 57.0061 38.9974 57.0305 38.9883 57.0534C38.9791 57.0762 38.9656 57.097 38.9483 57.1146C38.9311 57.1321 38.9105 57.146 38.8878 57.1556C38.8651 57.1651 38.8408 57.1699 38.8161 57.1699L36.7558 57.1885C36.7344 57.1889 36.7132 57.185 36.6934 57.1772C36.6735 57.1693 36.6554 57.1575 36.6402 57.1425C36.6249 57.1276 36.6128 57.1097 36.6046 57.09C36.5963 57.0704 36.5921 57.0492 36.5921 57.0279C36.5818 55.7325 36.5787 54.4454 36.5828 53.1666C36.5859 52.1781 35.0846 51.8939 34.717 52.7218C34.3463 53.5527 34.5688 56.0177 34.5688 57.0155C34.5688 57.0581 34.5522 57.099 34.5226 57.1291C34.4931 57.1592 34.453 57.1761 34.4112 57.1761H32.32C32.2798 57.1761 32.2413 57.1602 32.2129 57.1318C32.1845 57.1034 32.1686 57.0649 32.1686 57.0248L32.1562 50.3927C32.1562 50.3484 32.1738 50.306 32.2051 50.2747C32.2364 50.2434 32.2788 50.2259 32.3231 50.2259H34.3742C34.3959 50.2259 34.4175 50.2302 34.4375 50.2386C34.4576 50.247 34.4758 50.2594 34.491 50.2749C34.5063 50.2904 34.5183 50.3088 34.5263 50.3291C34.5343 50.3493 34.5383 50.3709 34.5379 50.3927L34.5348 50.8282C34.5327 50.958 34.5852 50.9858 34.6923 50.9116ZM69.5456 54.5474C70.1788 56.2 71.3465 55.2115 72.4276 54.9397C72.4793 54.9273 72.5332 54.9273 72.5848 54.9396C72.6363 54.952 72.6841 54.9763 72.7241 55.0107L73.7126 55.8757C73.726 55.8873 73.7369 55.9017 73.7444 55.9178C73.7519 55.9339 73.7559 55.9514 73.7562 55.9692C73.7565 55.987 73.753 56.0046 73.7461 56.0209C73.7391 56.0373 73.7287 56.052 73.7157 56.0641C72.2577 57.4274 70.705 57.726 69.0575 56.9599C65.4434 55.2795 66.818 49.6544 70.9943 50.1177C73.0125 50.3422 74.0339 51.6767 74.0586 54.1211C74.059 54.1566 74.0524 54.1919 74.039 54.2249C74.0257 54.2579 74.006 54.2878 73.981 54.3131C73.956 54.3384 73.9262 54.3585 73.8934 54.3722C73.8606 54.3859 73.8254 54.3929 73.7899 54.3929L69.6506 54.3991C69.6328 54.3991 69.6152 54.4033 69.5994 54.4115C69.5836 54.4197 69.57 54.4315 69.5597 54.446C69.5494 54.4606 69.5427 54.4774 69.5403 54.495C69.5378 54.5126 69.5396 54.5306 69.5456 54.5474ZM69.4869 52.6507C69.3098 52.939 69.3911 53.0832 69.7309 53.0832H71.5596C71.5798 53.0831 71.5997 53.0786 71.6179 53.07C71.6361 53.0614 71.6522 53.049 71.6649 53.0336C71.6776 53.0182 71.6867 53.0002 71.6915 52.981C71.6962 52.9618 71.6965 52.9419 71.6924 52.9226C71.4515 51.6746 70.1356 51.5974 69.4869 52.6507Z" fill="#9E9E9E"/>
<path d="M81.8288 56.783C78.0849 54.4477 81.2017 48.2419 85.4244 50.4907C86.7681 51.2043 87.2222 52.5572 87.2315 54.006C87.2319 54.0599 87.2215 54.1134 87.201 54.1632C87.1805 54.2131 87.1501 54.2583 87.1119 54.2963C87.0736 54.3343 87.0281 54.3643 86.9781 54.3844C86.9281 54.4046 86.8746 54.4146 86.8206 54.4137L82.7401 54.3612C82.7164 54.3613 82.6932 54.3674 82.6726 54.3789C82.652 54.3904 82.6347 54.407 82.6226 54.4269C82.6104 54.4469 82.6037 54.4696 82.6032 54.4927C82.6027 54.5159 82.6083 54.5387 82.6196 54.5589C83.4629 56.122 84.4236 55.3343 85.5727 54.9574C85.6237 54.9414 85.6781 54.9387 85.7305 54.9495C85.7829 54.9603 85.8317 54.9843 85.8723 55.0192L86.833 55.8378C86.8483 55.8505 86.8609 55.8662 86.8701 55.884C86.8792 55.9017 86.8846 55.9211 86.8861 55.941C86.8875 55.9609 86.8849 55.9809 86.8784 55.9998C86.872 56.0187 86.8618 56.0361 86.8484 56.0509C85.5881 57.5027 83.398 57.7591 81.8288 56.783ZM84.8097 52.6283C84.1548 51.5657 82.9285 51.7448 82.5331 52.8569C82.5236 52.8826 82.5205 52.9103 82.5241 52.9376C82.5276 52.9648 82.5377 52.9908 82.5535 53.0132C82.5693 53.0357 82.5903 53.054 82.6147 53.0666C82.6392 53.0792 82.6663 53.0857 82.6937 53.0855L84.5502 53.0916C84.6045 53.0922 84.658 53.0781 84.7049 53.0508C84.7519 53.0236 84.7907 52.9842 84.8172 52.9368C84.8438 52.8895 84.8571 52.8358 84.8557 52.7815C84.8544 52.7272 84.8385 52.6743 84.8097 52.6283ZM50.9079 53.453L51.9272 50.2312C51.9332 50.2122 51.9451 50.1956 51.9613 50.184C51.9774 50.1723 51.9969 50.1661 52.0168 50.1663L53.864 50.1694C53.884 50.1692 53.9034 50.1754 53.9196 50.187C53.9357 50.1987 53.9476 50.2153 53.9536 50.2343L54.9483 53.3727C54.9547 53.3912 54.9668 53.4071 54.9828 53.4183C54.9988 53.4295 55.0179 53.4353 55.0374 53.435C55.057 53.4346 55.0759 53.4281 55.0915 53.4164C55.1071 53.4047 55.1186 53.3883 55.1244 53.3696L55.9337 50.2837C55.9385 50.2636 55.95 50.2456 55.9662 50.2327C55.9824 50.2199 56.0025 50.2128 56.0232 50.2127L58.1763 50.2405C58.1907 50.2408 58.2048 50.2444 58.2175 50.2511C58.2303 50.2578 58.2413 50.2674 58.2497 50.2791C58.258 50.2908 58.2636 50.3043 58.2659 50.3185C58.2682 50.3327 58.2671 50.3472 58.2628 50.361L56.1931 57.2062C56.1876 57.2263 56.1754 57.2439 56.1586 57.2563C56.1418 57.2686 56.1213 57.2749 56.1005 57.2742L54.0834 57.234C54.064 57.2336 54.0452 57.2271 54.0297 57.2155C54.0142 57.2038 54.0027 57.1876 53.9969 57.1691L53.0084 53.799C53.0023 53.7805 52.9905 53.7643 52.9747 53.7529C52.9589 53.7414 52.9399 53.7353 52.9203 53.7353C52.9008 53.7353 52.8818 53.7414 52.866 53.7529C52.8502 53.7643 52.8384 53.7805 52.8323 53.799L51.8098 57.1784C51.804 57.1969 51.7926 57.2131 51.777 57.2247C51.7615 57.2364 51.7427 57.2429 51.7234 57.2433L49.7309 57.2711C49.7101 57.2718 49.6896 57.2655 49.6728 57.2532C49.656 57.2409 49.6438 57.2232 49.6383 57.2031L47.5656 50.3548C47.5612 50.341 47.5602 50.3265 47.5624 50.3123C47.5647 50.2981 47.5703 50.2846 47.5787 50.2729C47.5871 50.2612 47.5981 50.2516 47.6108 50.2449C47.6235 50.2382 47.6377 50.2346 47.652 50.2343H49.9225C49.9432 50.2344 49.9633 50.2415 49.9795 50.2544C49.9958 50.2672 50.0072 50.2852 50.012 50.3054L50.7287 53.4438C50.7328 53.4639 50.7435 53.4821 50.7591 53.4954C50.7746 53.5088 50.7942 53.5167 50.8147 53.5177C50.8352 53.5188 50.8555 53.513 50.8723 53.5013C50.8892 53.4896 50.9017 53.4726 50.9079 53.453ZM43.1174 54.145C43.1227 54.1592 43.1321 54.1714 43.1446 54.1801C43.157 54.1887 43.1718 54.1933 43.1869 54.1933C43.202 54.1933 43.2168 54.1887 43.2292 54.1801C43.2416 54.1714 43.2511 54.1592 43.2564 54.145L44.4611 50.4011C44.4763 50.3527 44.5069 50.3104 44.5486 50.2804C44.5903 50.2504 44.6408 50.2343 44.6928 50.2343H46.8118C46.8343 50.2343 46.8565 50.2398 46.8764 50.2503C46.8963 50.2608 46.9134 50.276 46.9261 50.2945C46.9389 50.313 46.947 50.3344 46.9497 50.3567C46.9523 50.379 46.9496 50.4017 46.9416 50.4227C46.2352 52.2906 45.5381 54.1543 44.8503 56.0138C43.8865 58.6271 42.722 60.3724 39.7287 58.76C39.6914 58.7407 39.6627 58.708 39.6484 58.6685C39.634 58.629 39.6352 58.5855 39.6515 58.5468L40.2261 57.1691C40.2438 57.1261 40.2766 57.0909 40.3185 57.07C40.3605 57.049 40.4088 57.0436 40.4547 57.0548L41.576 57.339C41.6257 57.3508 41.6777 57.3488 41.7264 57.3333C41.775 57.3177 41.8186 57.2892 41.8522 57.2507C41.8859 57.2123 41.9085 57.1654 41.9175 57.1151C41.9265 57.0648 41.9216 57.013 41.9034 56.9652L39.2963 50.3671C39.2903 50.3523 39.288 50.3362 39.2895 50.3203C39.2911 50.3043 39.2966 50.289 39.3054 50.2756C39.3142 50.2623 39.3261 50.2512 39.3401 50.2435C39.3542 50.2358 39.3699 50.2316 39.3859 50.2312L41.6316 50.2343C41.6852 50.2342 41.7374 50.2508 41.7807 50.2819C41.824 50.313 41.8561 50.3569 41.8725 50.4073L43.1174 54.145Z" fill="#9E9E9E"/>
</svg>
