<svg width="836" height="429" viewBox="0 0 836 429" fill="none" xmlns="http://www.w3.org/2000/svg">
<path fill-rule="evenodd" clip-rule="evenodd" d="M-44.8139 242.437L8.80078 163.707L43.3101 238.42L-44.8139 242.437ZM8.69213 164.946L-43.6274 241.774L42.3285 237.857L8.69213 164.946Z" fill="white" fill-opacity="0.08"/>
<path fill-rule="evenodd" clip-rule="evenodd" d="M8.80078 163.707L41.6279 186.062L43.3101 238.42L8.80078 163.707ZM40.9988 186.369L10.2884 165.455L42.5572 235.439L40.9988 186.369Z" fill="white" fill-opacity="0.08"/>
<path fill-rule="evenodd" clip-rule="evenodd" d="M41.6281 186.063L90.5625 82.8203L127.375 146.286L41.6281 186.063ZM90.6577 84.1457L42.9171 184.787L126.547 146.037L90.6577 84.1457Z" fill="white" fill-opacity="0.08"/>
<path fill-rule="evenodd" clip-rule="evenodd" d="M93.6011 195.878L41.6261 186.063L127.373 146.287L93.6011 195.878ZM43.579 185.818L93.3188 195.213L125.6 147.81L43.579 185.818Z" fill="white" fill-opacity="0.08"/>
<path fill-rule="evenodd" clip-rule="evenodd" d="M-116.358 253.49L-44.8152 242.437L4.26007 327.069L-116.358 253.49ZM-45.1475 243.156L-114.604 253.845L2.53122 325.367L-45.1475 243.156Z" fill="white" fill-opacity="0.08"/>
<path fill-rule="evenodd" clip-rule="evenodd" d="M-36.4372 363.384L-116.36 253.49L4.258 327.069L-36.4372 363.384ZM-114.046 255.644L-36.3561 362.494L3.25709 327.228L-114.046 255.644Z" fill="white" fill-opacity="0.08"/>
<path fill-rule="evenodd" clip-rule="evenodd" d="M43.3088 238.42L41.6265 186.061L93.6015 195.876L43.3088 238.42ZM42.2936 186.778L43.9114 237.149L92.2617 196.225L42.2936 186.778Z" fill="white" fill-opacity="0.08"/>
<path fill-rule="evenodd" clip-rule="evenodd" d="M43.3102 238.419L93.603 195.876L93.3418 251.165L43.3102 238.419ZM93.0119 197.207L44.6257 238.107L92.7235 250.377L93.0119 197.207Z" fill="white" fill-opacity="0.08"/>
<path fill-rule="evenodd" clip-rule="evenodd" d="M93.6022 195.877L127.374 146.286L143.955 153.323L93.6022 195.877ZM127.583 147.058L96.6459 192.487L142.762 153.456L127.583 147.058Z" fill="white" fill-opacity="0.08"/>
<path fill-rule="evenodd" clip-rule="evenodd" d="M-44.816 242.434L43.3081 238.418L4.25926 327.067L-44.816 242.434ZM42.3384 239.071L-43.7985 243.022L4.19996 325.766L42.3384 239.071Z" fill="white" fill-opacity="0.08"/>
<path fill-rule="evenodd" clip-rule="evenodd" d="M-53.6009 466.933L-73.2068 440.818L3.67549 437.655L-53.6009 466.933ZM-71.9725 441.396L-53.4365 466.152L0.910956 438.399L-71.9725 441.396Z" fill="white" fill-opacity="0.08"/>
<path fill-rule="evenodd" clip-rule="evenodd" d="M-36.4354 363.385L4.25978 327.07L-24.5324 392.869L-36.4354 363.385ZM2.61105 329.414L-35.6903 363.525L-24.4565 391.292L2.61105 329.414Z" fill="white" fill-opacity="0.08"/>
<path fill-rule="evenodd" clip-rule="evenodd" d="M93.6022 195.877L143.955 153.323L166.863 237.206L93.6022 195.877ZM143.596 154.391L94.6749 195.767L165.876 235.956L143.596 154.391Z" fill="white" fill-opacity="0.08"/>
<path fill-rule="evenodd" clip-rule="evenodd" d="M93.3414 251.166L93.6027 195.876L166.864 237.205L93.3414 251.166ZM94.2422 196.942L93.9508 250.425L165.121 236.911L94.2422 196.942Z" fill="white" fill-opacity="0.08"/>
<path fill-rule="evenodd" clip-rule="evenodd" d="M143.956 153.322L192.009 168.975L166.864 237.206L143.956 153.322ZM191.174 169.352L144.85 154.246L166.956 235.22L191.174 169.352Z" fill="white" fill-opacity="0.08"/>
<path fill-rule="evenodd" clip-rule="evenodd" d="M-53.5984 466.936L3.67796 437.658L16.24 450.52L-53.5984 466.936ZM3.59841 438.392L-48.777 465.177L15.1118 450.172L3.59841 438.392Z" fill="white" fill-opacity="0.08"/>
<path fill-rule="evenodd" clip-rule="evenodd" d="M16.2405 450.52L3.67846 437.659L56.0132 439.157L16.2405 450.52ZM5.15253 438.347L16.4277 449.86L51.9867 439.671L5.15253 438.347Z" fill="white" fill-opacity="0.08"/>
<path fill-rule="evenodd" clip-rule="evenodd" d="M3.67721 437.657L-24.5321 392.867L56.0119 439.155L3.67721 437.657ZM-22.6711 394.607L4.03234 437.059L53.5988 438.457L-22.6711 394.607Z" fill="white" fill-opacity="0.08"/>
<path fill-rule="evenodd" clip-rule="evenodd" d="M4.26024 327.069L43.309 238.42L93.3406 251.166L4.26024 327.069ZM43.6273 239.11L5.87151 324.858L92.0136 251.418L43.6273 239.11Z" fill="white" fill-opacity="0.08"/>
<path fill-rule="evenodd" clip-rule="evenodd" d="M4.26073 327.068L93.341 251.165L144.396 332.891L4.26073 327.068ZM93.1637 252.042L5.84343 326.518L143.259 332.17L93.1637 252.042Z" fill="white" fill-opacity="0.08"/>
<path fill-rule="evenodd" clip-rule="evenodd" d="M-24.5324 392.87L4.25977 327.07L56.0116 439.158L-24.5324 392.87ZM4.26862 328.6L-23.7353 392.624L54.6056 437.675L4.26862 328.6Z" fill="white" fill-opacity="0.08"/>
<path fill-rule="evenodd" clip-rule="evenodd" d="M-53.5982 466.937L16.2402 450.521L8.69819 547.81L-53.5982 466.937ZM15.6064 451.297L-52.5302 467.297L8.25724 546.144L15.6064 451.297Z" fill="white" fill-opacity="0.08"/>
<path fill-rule="evenodd" clip-rule="evenodd" d="M93.3402 251.165L166.863 237.204L144.395 332.891L93.3402 251.165ZM166.072 237.979L94.3234 251.571L144.158 331.311L166.072 237.979Z" fill="white" fill-opacity="0.08"/>
<path fill-rule="evenodd" clip-rule="evenodd" d="M166.862 237.205L192.006 168.974L230.76 182.55L166.862 237.205ZM192.372 169.749L168.266 235.22L229.554 182.779L192.372 169.749Z" fill="white" fill-opacity="0.08"/>
<path fill-rule="evenodd" clip-rule="evenodd" d="M56.0115 439.156L4.25974 327.068L144.395 332.891L56.0115 439.156ZM5.2284 327.727L56.1675 438.001L143.125 333.444L5.2284 327.727Z" fill="white" fill-opacity="0.08"/>
<path fill-rule="evenodd" clip-rule="evenodd" d="M56.0123 439.156L144.395 332.891L109.368 462.675L56.0123 439.156ZM143.07 335.455L57.0018 438.937L108.931 461.852L143.07 335.455Z" fill="white" fill-opacity="0.08"/>
<path fill-rule="evenodd" clip-rule="evenodd" d="M109.367 462.674L144.395 332.891L205.071 408.353L109.367 462.674ZM144.671 334.182L110.343 461.395L204.122 408.127L144.671 334.182Z" fill="white" fill-opacity="0.08"/>
<path fill-rule="evenodd" clip-rule="evenodd" d="M16.2394 450.521L56.012 439.157L109.368 462.676L16.2394 450.521ZM55.921 439.831L19.2275 450.297L105.153 461.539L55.921 439.831Z" fill="white" fill-opacity="0.08"/>
<path fill-rule="evenodd" clip-rule="evenodd" d="M109.367 462.675L205.071 408.354L196.11 444.955L109.367 462.675ZM204.144 409.561L113.04 461.29L195.694 444.409L204.144 409.561Z" fill="white" fill-opacity="0.08"/>
<path fill-rule="evenodd" clip-rule="evenodd" d="M16.2394 450.521L109.368 462.676L41.8483 561.824L16.2394 450.521ZM108.243 463.171L17.0027 451.251L42.0677 560.345L108.243 463.171Z" fill="white" fill-opacity="0.08"/>
<path fill-rule="evenodd" clip-rule="evenodd" d="M196.11 444.953L205.07 408.352L209.391 441.181L196.11 444.953ZM204.857 411.673L196.937 444.046L208.673 440.692L204.857 411.673Z" fill="white" fill-opacity="0.08"/>
<path fill-rule="evenodd" clip-rule="evenodd" d="M209.392 441.183L205.071 408.354L245.805 419.022L209.392 441.183ZM205.822 409.18L209.884 440.152L244.261 419.284L205.822 409.18Z" fill="white" fill-opacity="0.08"/>
<path fill-rule="evenodd" clip-rule="evenodd" d="M205.071 408.353L144.395 332.891L245.805 419.021L205.071 408.353ZM148.935 337.559L205.438 407.815L243.373 417.733L148.935 337.559Z" fill="white" fill-opacity="0.08"/>
<path fill-rule="evenodd" clip-rule="evenodd" d="M109.367 462.675L196.11 444.955L153.438 531.136L109.367 462.675ZM195.054 445.812L110.386 463.107L153.415 529.86L195.054 445.812Z" fill="white" fill-opacity="0.08"/>
<path fill-rule="evenodd" clip-rule="evenodd" d="M292.537 420.959L245.805 419.022L308.421 397.635L292.537 420.959ZM249.121 418.549L292.194 420.306L306.856 398.775L249.121 418.549Z" fill="white" fill-opacity="0.08"/>
<path fill-rule="evenodd" clip-rule="evenodd" d="M245.805 419.024L144.396 332.893L308.421 397.636L245.805 419.024ZM147.603 334.815L245.921 418.314L306.628 397.571L147.603 334.815Z" fill="white" fill-opacity="0.08"/>
<path fill-rule="evenodd" clip-rule="evenodd" d="M144.398 332.891L166.865 237.205L308.423 397.635L144.398 332.891ZM167.177 238.521L145.1 332.477L306.259 396.108L167.177 238.521Z" fill="white" fill-opacity="0.08"/>
<path fill-rule="evenodd" clip-rule="evenodd" d="M166.862 237.206L230.76 182.55L385.202 300.541L166.862 237.206ZM230.813 183.321L168.118 236.905L382.22 298.983L230.813 183.321Z" fill="white" fill-opacity="0.08"/>
<path fill-rule="evenodd" clip-rule="evenodd" d="M230.761 182.549L405.729 254.744L385.203 300.54L230.761 182.549ZM404.883 255.061L234.855 184.865L384.948 299.526L404.883 255.061Z" fill="white" fill-opacity="0.08"/>
<path fill-rule="evenodd" clip-rule="evenodd" d="M209.392 441.184L245.804 419.023L256.449 481.739L209.392 441.184ZM245.373 420.042L210.438 441.266L255.562 480.189L245.373 420.042Z" fill="white" fill-opacity="0.08"/>
<path fill-rule="evenodd" clip-rule="evenodd" d="M308.419 397.634L385.201 300.54L359.733 377.112L308.419 397.634ZM383.509 303.642L310.336 396.208L359.268 376.638L383.509 303.642Z" fill="white" fill-opacity="0.08"/>
<path fill-rule="evenodd" clip-rule="evenodd" d="M308.422 397.636L166.864 237.206L385.204 300.541L308.422 397.636ZM168.742 238.38L308.395 396.672L384.165 300.832L168.742 238.38Z" fill="white" fill-opacity="0.08"/>
<path fill-rule="evenodd" clip-rule="evenodd" d="M359.735 377.111L385.203 300.539L373.305 364.974L359.735 377.111ZM383.023 309.139L361.079 375.138L372.753 364.704L383.023 309.139Z" fill="white" fill-opacity="0.08"/>
<path fill-rule="evenodd" clip-rule="evenodd" d="M245.804 419.023L292.536 420.961L256.449 481.74L245.804 419.023ZM291.459 421.54L246.52 419.669L256.779 480.021L291.459 421.54Z" fill="white" fill-opacity="0.08"/>
<path fill-rule="evenodd" clip-rule="evenodd" d="M373.305 364.974L385.203 300.539L411.732 339.931L373.305 364.974ZM385.501 302.107L374.184 363.682L410.855 339.754L385.501 302.107Z" fill="white" fill-opacity="0.08"/>
<path fill-rule="evenodd" clip-rule="evenodd" d="M359.734 377.113L373.303 364.975L384.246 372.427L359.734 377.113ZM373.367 365.807L361.791 376.097L382.695 372.159L373.367 365.807Z" fill="white" fill-opacity="0.08"/>
<path fill-rule="evenodd" clip-rule="evenodd" d="M256.449 481.74L292.535 420.961L314.087 491.105L256.449 481.74ZM292.352 422.464L257.428 481.304L313.227 490.362L292.352 422.464Z" fill="white" fill-opacity="0.08"/>
<path fill-rule="evenodd" clip-rule="evenodd" d="M292.536 420.959L308.42 397.635L357.133 443.625L292.536 420.959ZM308.531 398.551L293.502 420.62L354.62 442.071L308.531 398.551Z" fill="white" fill-opacity="0.08"/>
<path fill-rule="evenodd" clip-rule="evenodd" d="M385.201 300.541L420.954 295.002L411.73 339.933L385.201 300.541ZM420.188 295.741L386.256 300.997L411.408 338.4L420.188 295.741Z" fill="white" fill-opacity="0.08"/>
<path fill-rule="evenodd" clip-rule="evenodd" d="M384.243 372.427L373.301 364.975L411.729 339.932L384.243 372.427ZM374.396 364.986L384.119 371.607L408.535 342.694L374.396 364.986Z" fill="white" fill-opacity="0.08"/>
<path fill-rule="evenodd" clip-rule="evenodd" d="M308.421 397.634L359.735 377.111L357.134 443.624L308.421 397.634ZM359.124 378.008L309.551 397.825L356.558 442.233L359.124 378.008Z" fill="white" fill-opacity="0.08"/>
<path fill-rule="evenodd" clip-rule="evenodd" d="M314.087 491.105L292.535 420.961L358.154 465.647L314.087 491.105ZM293.592 422.416L314.409 490.169L356.95 465.563L293.592 422.416Z" fill="white" fill-opacity="0.08"/>
<path fill-rule="evenodd" clip-rule="evenodd" d="M292.536 420.96L357.133 443.625L358.154 465.646L292.536 420.96ZM356.527 444.052L296.752 423.096L357.456 464.435L356.527 444.052Z" fill="white" fill-opacity="0.08"/>
<path fill-rule="evenodd" clip-rule="evenodd" d="M384.244 372.426L411.73 339.932L395.187 379.878L384.244 372.426ZM409.625 343.331L385.16 372.315L394.919 378.96L409.625 343.331Z" fill="white" fill-opacity="0.08"/>
<path fill-rule="evenodd" clip-rule="evenodd" d="M359.734 377.113L384.246 372.427L395.188 379.879L359.734 377.113ZM384.094 373.112L364.347 376.893L392.92 379.122L384.094 373.112Z" fill="white" fill-opacity="0.08"/>
<path fill-rule="evenodd" clip-rule="evenodd" d="M411.731 339.931L420.955 295L463.405 311.091L411.731 339.931ZM421.429 295.847L412.598 338.735L461.923 311.185L421.429 295.847Z" fill="white" fill-opacity="0.08"/>
<path fill-rule="evenodd" clip-rule="evenodd" d="M359.734 377.113L395.188 379.879L357.133 443.625L359.734 377.113ZM394.135 380.423L360.329 377.781L357.832 441.212L394.135 380.423Z" fill="white" fill-opacity="0.08"/>
<path fill-rule="evenodd" clip-rule="evenodd" d="M357.133 443.625L395.187 379.879L404.526 475.9L357.133 443.625ZM394.771 381.801L357.941 443.44L403.756 474.64L394.771 381.801Z" fill="white" fill-opacity="0.08"/>
<path fill-rule="evenodd" clip-rule="evenodd" d="M395.187 379.878L411.73 339.932L523.759 441.855L395.187 379.878ZM411.949 340.921L395.973 379.573L520.232 439.401L411.949 340.921Z" fill="white" fill-opacity="0.08"/>
<path fill-rule="evenodd" clip-rule="evenodd" d="M411.73 339.93L545.267 371.095L523.758 441.854L411.73 339.93ZM544.444 371.532L413.874 341.022L523.444 440.695L544.444 371.532Z" fill="white" fill-opacity="0.08"/>
<path fill-rule="evenodd" clip-rule="evenodd" d="M411.731 339.93L463.404 311.091L545.269 371.095L411.731 339.93ZM463.325 311.825L413.371 339.681L542.464 369.815L463.325 311.825Z" fill="white" fill-opacity="0.08"/>
<path fill-rule="evenodd" clip-rule="evenodd" d="M404.525 475.899L395.187 379.878L523.758 441.855L404.525 475.899ZM395.911 380.896L405.063 475.109L522.039 441.682L395.911 380.896Z" fill="white" fill-opacity="0.08"/>
<path fill-rule="evenodd" clip-rule="evenodd" d="M404.526 475.9L523.759 441.856L514.537 533.746L404.526 475.9ZM523.04 442.68L406.15 476.06L514.005 532.753L523.04 442.68Z" fill="white" fill-opacity="0.08"/>
<path fill-rule="evenodd" clip-rule="evenodd" d="M523.76 441.855L545.269 371.096L600.645 485.651L523.76 441.855ZM545.373 372.794L524.485 441.561L599.203 484.144L545.373 372.794Z" fill="white" fill-opacity="0.08"/>
<path fill-rule="evenodd" clip-rule="evenodd" d="M600.645 485.651L545.269 371.096L644.675 460.169L600.645 485.651ZM547.183 373.607L600.918 484.787L643.653 460.051L547.183 373.607Z" fill="white" fill-opacity="0.08"/>
<path fill-rule="evenodd" clip-rule="evenodd" d="M545.268 371.097L650.743 343.914L644.674 460.17L545.268 371.097ZM650.11 344.691L546.541 371.386L644.17 458.828L650.11 344.691Z" fill="white" fill-opacity="0.08"/>
<path fill-rule="evenodd" clip-rule="evenodd" d="M650.744 343.914L686.836 368.493L674.825 455.07L650.744 343.914ZM686.171 368.775L651.658 345.272L674.692 451.564L686.171 368.775Z" fill="white" fill-opacity="0.08"/>
<path fill-rule="evenodd" clip-rule="evenodd" d="M674.825 455.069L686.836 368.492L722.928 393.071L674.825 455.069ZM687.283 369.532L675.75 452.863L722.011 393.182L687.283 369.532Z" fill="white" fill-opacity="0.08"/>
<path fill-rule="evenodd" clip-rule="evenodd" d="M674.824 455.069L722.926 393.07L759.018 417.649L674.824 455.069ZM723.05 393.89L676.778 453.511L757.743 417.516L723.05 393.89Z" fill="white" fill-opacity="0.08"/>
<path fill-rule="evenodd" clip-rule="evenodd" d="M674.824 455.069L759.018 417.649L795.074 442.203L674.824 455.069ZM758.963 418.347L678.662 454.059L793.404 441.801L758.963 418.347Z" fill="white" fill-opacity="0.08"/>
</svg>
